<svg width="33" height="25" viewBox="0 0 33 25" fill="none" xmlns="http://www.w3.org/2000/svg">
<path d="M27.3759 2.50996C25.2954 1.55745 23.099 0.881713 20.8429 0.5C20.5342 1.0519 20.2548 1.61973 20.006 2.20112C17.6028 1.83898 15.1589 1.83898 12.7557 2.20112C12.5068 1.61979 12.2275 1.05197 11.9189 0.5C9.66129 0.884937 7.46348 1.56228 5.38088 2.51494C1.24638 8.632 0.125587 14.5971 0.685985 20.4776C3.10725 22.2665 5.81734 23.627 8.69844 24.5C9.34718 23.6275 9.92123 22.7018 10.4145 21.7329C9.4776 21.383 8.57332 20.9512 7.71214 20.4427C7.93879 20.2783 8.16046 20.109 8.37465 19.9446C10.8805 21.123 13.6155 21.734 16.3846 21.734C19.1537 21.734 21.8887 21.123 24.3946 19.9446C24.6113 20.1214 24.8329 20.2908 25.0571 20.4427C24.1942 20.9521 23.2883 21.3846 22.3497 21.7354C22.8424 22.7039 23.4165 23.6287 24.0658 24.5C26.9494 23.6305 29.6615 22.2707 32.0832 20.4801C32.7408 13.6606 30.96 7.75031 27.3759 2.50996ZM11.1243 16.8611C9.5627 16.8611 8.27254 15.444 8.27254 13.7005C8.27254 11.957 9.51787 10.5274 11.1194 10.5274C12.7209 10.5274 14.0011 11.957 13.9737 13.7005C13.9463 15.444 12.7159 16.8611 11.1243 16.8611ZM21.6449 16.8611C20.0808 16.8611 18.7956 15.444 18.7956 13.7005C18.7956 11.957 20.0409 10.5274 21.6449 10.5274C23.2489 10.5274 24.5191 11.957 24.4917 13.7005C24.4643 15.444 23.2364 16.8611 21.6449 16.8611Z" fill="white"/>
</svg>
