<svg width="530" height="502" viewBox="0 0 530 502" fill="none" xmlns="http://www.w3.org/2000/svg">
<g clip-path="url(#clip0_64_4336)">
<path d="M522.16 244.31C516.521 292.042 494.705 347.543 451.15 373.033C385.337 411.562 390.844 470.819 262.379 496.586C242.355 500.608 223.347 502.298 205.423 501.967C195.792 501.79 186.46 501.017 177.47 499.691C95.8228 487.769 40.8789 431.064 20.7214 362.603C-5.80511 272.574 47.1595 213.626 82.2665 178.114C117.374 142.601 143.093 31.9433 269.18 5.62406C288.408 1.62424 308.068 -0.41987 327.717 0.0662968C372.577 1.17122 421.505 15.8888 455.374 46.6057C457.917 48.915 460.383 51.3127 462.794 53.7766C509.854 102.04 529.845 179.23 522.16 244.299V244.31Z" fill="#2563EB"/>
<path opacity="0.7" d="M522.16 244.31C516.521 292.042 494.705 347.543 451.15 373.033C385.337 411.562 390.844 470.819 262.379 496.586C242.355 500.608 223.347 502.298 205.423 501.967C195.792 501.79 186.46 501.017 177.47 499.691C95.8228 487.769 40.8789 431.064 20.7214 362.603C-5.80511 272.574 47.1595 213.626 82.2665 178.114C117.374 142.601 143.093 31.9433 269.18 5.62406C288.408 1.62424 308.068 -0.41987 327.717 0.0662968C372.577 1.17122 421.505 15.8888 455.374 46.6057C457.917 48.915 460.383 51.3127 462.794 53.7766C509.854 102.04 529.845 179.23 522.16 244.299V244.31Z" fill="white"/>
<path d="M375.551 495.359H529.447" stroke="#1E293B" stroke-linecap="round" stroke-linejoin="round"/>
<path d="M21.1748 495.359H365.467" stroke="#1E293B" stroke-linecap="round" stroke-linejoin="round"/>
<path d="M30.2197 267.325C30.2197 267.325 26.427 277.756 18.3662 279.17C10.3054 280.595 -3.92536 264.95 5.08637 256.895C14.0981 248.84 26.427 261.635 30.2197 267.325Z" fill="#2563EB" stroke="#1E293B" stroke-linecap="round" stroke-linejoin="round"/>
<path d="M42.5486 216.145C42.5486 216.145 30.6951 245.05 35.4387 259.27C40.1823 273.491 69.5838 283.91 78.12 265.436C86.6563 246.95 67.6819 220.885 60.5721 215.206C53.4622 209.516 44.9259 211.416 42.5486 216.156V216.145Z" fill="#2563EB" stroke="#1E293B" stroke-linecap="round" stroke-linejoin="round"/>
<path d="M111.79 228.465C111.79 228.465 91.3999 246.95 89.0226 265.425C86.6563 283.91 100.401 290.54 114.631 288.175C128.862 285.811 135.972 249.79 131.704 233.205C127.436 216.62 111.79 228.465 111.79 228.465Z" fill="#2563EB" stroke="#1E293B" stroke-linecap="round" stroke-linejoin="round"/>
<path d="M115.582 330.825C115.582 330.825 92.8152 331.775 91.8754 342.67C90.9244 353.565 101.838 355.94 112.741 346.46C123.643 336.98 125.069 331.3 115.582 330.825Z" fill="#2563EB" stroke="#1E293B" stroke-linecap="round" stroke-linejoin="round"/>
<path d="M92.2513 345.278C92.2513 345.278 110.186 337.079 118.269 335.654" stroke="#1E293B" stroke-miterlimit="10"/>
<path d="M120.658 402.148C120.658 402.148 103.939 386.679 95.5353 393.695C87.1318 400.712 93.1359 410.103 107.555 411.153C121.973 412.203 127.016 409.197 120.658 402.148Z" fill="#2563EB" stroke="#1E293B" stroke-linecap="round" stroke-linejoin="round"/>
<path d="M93.9541 395.795C93.9541 395.795 112.42 402.723 119.132 407.452" stroke="#1E293B" stroke-miterlimit="10"/>
<path d="M32.4533 397.596C32.4533 397.596 55.5078 376.282 67.0848 385.95C78.6729 395.618 70.391 408.579 50.5209 410.015C30.6509 411.463 23.7069 407.319 32.4533 397.596Z" fill="#2563EB" stroke="#1E293B" stroke-linecap="round" stroke-linejoin="round"/>
<path d="M69.2631 388.834C69.2631 388.834 43.8091 398.391 34.5542 404.899" stroke="#1E293B" stroke-miterlimit="10"/>
<path d="M59.1457 353.576C59.1457 353.576 56.7794 364.945 48.2431 369.21C39.7069 373.475 24.5362 364.47 32.597 350.725C40.6578 336.98 54.8886 347.885 59.1567 353.565L59.1457 353.576Z" fill="#2563EB" stroke="#1E293B" stroke-linecap="round" stroke-linejoin="round"/>
<path d="M39.2314 318.03C39.2314 318.03 34.9633 308.55 18.3662 314.715C1.76917 320.881 -4.87629 330.35 5.56183 333.676C16 336.991 39.2314 318.041 39.2314 318.041V318.03Z" fill="#2563EB" stroke="#1E293B" stroke-linecap="round" stroke-linejoin="round"/>
<path d="M36.0579 317.599C36.0579 317.599 18.4768 319.5 8.96748 327.577" stroke="#1E293B" stroke-miterlimit="10"/>
<path d="M86.6563 204.3C86.6563 204.3 89.498 210.93 95.1926 209.516C100.887 208.09 102.302 199.56 111.314 201.936C120.326 204.3 127.911 214.731 127.911 209.991C127.911 205.251 116.533 192.931 103.729 192.931C90.9244 192.931 87.1318 198.146 86.6563 204.3Z" fill="#2563EB" stroke="#1E293B" stroke-linecap="round" stroke-linejoin="round"/>
<path d="M39.2314 318.03C39.2314 318.03 59.6543 314.108 68.1574 336.77C68.9867 338.991 69.6943 341.322 70.2914 343.709" stroke="#1E293B" stroke-miterlimit="10"/>
<path d="M124.45 296.086C124.45 296.086 128.718 286.606 145.315 292.772C161.912 298.937 168.558 308.406 158.12 311.732C147.682 315.047 124.45 296.097 124.45 296.097V296.086Z" fill="#2563EB" stroke="#1E293B" stroke-linecap="round" stroke-linejoin="round"/>
<path d="M128.243 296.705C128.243 296.705 145.349 295.755 153.432 305.732" stroke="#1E293B" stroke-miterlimit="10"/>
<path d="M124.45 296.086C124.45 296.086 117.683 294.783 110.319 298.009" stroke="#1E293B" stroke-miterlimit="10"/>
<path d="M50.1118 279.082C40.1049 268.872 30.2197 267.325 30.2197 267.325C30.2197 267.325 15.613 263.469 9.91843 268.684" stroke="#1E293B" stroke-miterlimit="10"/>
<path d="M52.1464 226.587L51.2618 222.631" stroke="#1E293B" stroke-miterlimit="10"/>
<path d="M75.2451 436.091C75.2451 436.091 77.3681 354.482 75.2451 329.698C73.1221 304.915 63.2037 275.877 63.2037 275.877L53.0973 230.785" stroke="#1E293B" stroke-miterlimit="10"/>
<path d="M117.385 244.111L119.22 240.199" stroke="#1E293B" stroke-miterlimit="10"/>
<path d="M80.1988 436.003C80.1988 436.003 80.9065 361.564 83.7372 340.317C86.5678 319.069 97.9127 285.789 97.9127 285.789L115.317 248.542" stroke="#1E293B" stroke-miterlimit="10"/>
<path d="M92.2513 345.278C92.2513 345.278 87.2866 387.95 84.4559 436.102" stroke="#1E293B" stroke-miterlimit="10"/>
<path d="M68.1574 436.003C68.1574 436.003 69.5727 367.94 66.742 358.736C63.9114 349.532 59.1567 353.587 59.1567 353.587C59.1567 353.587 46.0427 355.134 41.2881 362.724" stroke="#1E293B" stroke-miterlimit="10"/>
<path d="M71.4082 349.012C75.1124 369.774 71.6957 436.069 71.6957 436.069" stroke="#1E293B" stroke-miterlimit="10"/>
<path d="M106.305 300.23C102.203 303.036 98.2554 307.567 95.5353 314.826C87.0322 337.488 88.0053 436.102 88.0053 436.102" stroke="#1E293B" stroke-miterlimit="10"/>
<path d="M52.5887 281.789C57.0227 286.982 61.3129 294.009 64.619 303.5C75.9528 336.074 80.2099 420.423 78.0869 436.003" stroke="#1E293B" stroke-miterlimit="10"/>
<path d="M81.382 312.274C80.6964 353.388 80.1988 436.003 80.1988 436.003" stroke="#1E293B" stroke-miterlimit="10"/>
<path d="M81.4704 307.158C81.9348 279.977 82.4877 253.37 83.0406 239.061C84.4559 202.234 86.6563 204.3 86.6563 204.3C86.6563 204.3 89.2769 196.036 104.016 196.986" stroke="#1E293B" stroke-miterlimit="10"/>
<path d="M63.3143 338.195C63.3143 338.195 51.4608 327.632 56.2044 322.439C60.948 317.246 90.3494 313.434 98.8857 320.185C107.422 326.936 88.4476 336.46 81.3377 338.549C74.2279 340.626 65.6916 339.93 63.3143 338.206V338.195Z" fill="#2563EB" stroke="#1E293B" stroke-linecap="round" stroke-linejoin="round"/>
<path d="M74.2721 329.544C74.1062 330.615 74.0067 331.676 74.0067 332.693" stroke="#1E293B" stroke-miterlimit="10"/>
<path d="M78.3412 317.213C78.3412 317.213 76.572 320.737 75.3004 325.058" stroke="#1E293B" stroke-miterlimit="10"/>
<path d="M63.3143 407.275C63.3143 407.275 51.4608 396.712 56.2044 391.519C60.948 386.326 90.3494 382.514 98.8857 389.265C107.422 396.016 88.4476 405.54 81.3377 407.629C74.2279 409.717 65.6916 409.01 63.3143 407.286V407.275Z" fill="#2563EB" stroke="#1E293B" stroke-linecap="round" stroke-linejoin="round"/>
<path d="M78.3412 386.292C78.3412 386.292 74.0067 394.966 74.0067 401.783" stroke="#1E293B" stroke-miterlimit="10"/>
<path d="M72.1491 378.061C72.1491 378.061 64.0993 370.89 67.317 367.365C70.5347 363.84 90.5043 361.255 96.2983 365.84C102.092 370.426 89.2105 376.89 84.3895 378.304C79.5686 379.718 73.7635 379.243 72.1491 378.072V378.061Z" fill="#2563EB" stroke="#1E293B" stroke-linecap="round" stroke-linejoin="round"/>
<path d="M82.3439 363.807C82.3439 363.807 79.4027 369.696 79.4027 374.326" stroke="#1E293B" stroke-miterlimit="10"/>
<path d="M93.1027 424.247H61.0143V495.359H93.1027V424.247Z" fill="white" stroke="#1E293B" stroke-linecap="round" stroke-linejoin="round"/>
<path d="M296.436 294.23H397.146C399.811 294.23 401.978 296.396 401.978 299.059V386.359C401.978 389.022 399.811 391.187 397.146 391.187H296.436C293.771 391.187 291.604 389.022 291.604 386.359V299.059C291.604 296.396 293.771 294.23 296.436 294.23Z" fill="#1E293B" stroke="#1E293B" stroke-linecap="round" stroke-linejoin="round"/>
<path d="M292.931 288.982H393.641C396.306 288.982 398.473 291.147 398.473 293.81V381.11C398.473 383.773 396.306 385.939 393.641 385.939H292.931C290.266 385.939 288.099 383.773 288.099 381.11V293.81C288.099 291.147 290.266 288.982 292.931 288.982Z" fill="white" stroke="#1E293B" stroke-linecap="round" stroke-linejoin="round"/>
<path d="M398.473 301.235V293.81C398.473 291.147 396.306 288.982 393.641 288.982H292.931C290.266 288.982 288.099 291.147 288.099 293.81V301.235H398.473Z" fill="#2563EB" stroke="#1E293B" stroke-linecap="round" stroke-linejoin="round"/>
<path d="M369.359 298.374C370.99 298.374 372.311 297.053 372.311 295.423C372.311 293.794 370.99 292.473 369.359 292.473C367.729 292.473 366.407 293.794 366.407 295.423C366.407 297.053 367.729 298.374 369.359 298.374Z" fill="white" stroke="#1E293B" stroke-linecap="round" stroke-linejoin="round"/>
<path d="M381.677 295.423C381.677 293.788 380.35 292.473 378.725 292.473C377.099 292.473 375.772 293.799 375.772 295.423C375.772 297.048 377.099 298.374 378.725 298.374C380.35 298.374 381.677 297.048 381.677 295.423Z" fill="white" stroke="#1E293B" stroke-linecap="round" stroke-linejoin="round"/>
<path d="M388.079 298.374C389.71 298.374 391.031 297.053 391.031 295.423C391.031 293.794 389.71 292.473 388.079 292.473C386.449 292.473 385.127 293.794 385.127 295.423C385.127 297.053 386.449 298.374 388.079 298.374Z" fill="white" stroke="#1E293B" stroke-linecap="round" stroke-linejoin="round"/>
<path d="M384.795 307.887H303.092C301.699 307.887 300.56 309.014 300.56 310.417V341.399L306.454 332.173H384.784C386.177 332.173 387.316 331.046 387.316 329.643V310.417C387.316 309.025 386.188 307.887 384.784 307.887H384.795Z" stroke="#1E293B" stroke-miterlimit="10"/>
<path d="M303.092 346.626H384.795C386.188 346.626 387.327 347.753 387.327 349.156V380.138L381.434 370.912H303.104C301.71 370.912 300.571 369.785 300.571 368.382V349.156C300.571 347.764 301.699 346.626 303.104 346.626H303.092Z" stroke="#1E293B" stroke-miterlimit="10"/>
<path d="M315.488 327.256C319.567 327.256 322.874 323.952 322.874 319.875C322.874 315.799 319.567 312.495 315.488 312.495C311.408 312.495 308.101 315.799 308.101 319.875C308.101 323.952 311.408 327.256 315.488 327.256Z" fill="#2563EB" stroke="#1E293B" stroke-linecap="round" stroke-linejoin="round"/>
<path d="M315.488 320.804C317.185 320.804 318.562 319.428 318.562 317.732C318.562 316.035 317.185 314.66 315.488 314.66C313.79 314.66 312.414 316.035 312.414 317.732C312.414 319.428 313.79 320.804 315.488 320.804Z" fill="white" stroke="#1E293B" stroke-linecap="round" stroke-linejoin="round"/>
<path d="M315.488 327.256C317.102 327.256 318.584 326.737 319.8 325.853C319.767 323.5 317.854 321.588 315.488 321.588C313.122 321.588 311.198 323.489 311.175 325.853C312.392 326.726 313.873 327.256 315.488 327.256Z" fill="white" stroke="#1E293B" stroke-linecap="round" stroke-linejoin="round"/>
<path d="M328.104 313.732H353.204" stroke="#1E293B" stroke-miterlimit="10"/>
<path d="M328.635 320.881H380.383" stroke="#1E293B" stroke-miterlimit="10"/>
<path d="M328.635 325.4H380.383" stroke="#1E293B" stroke-miterlimit="10"/>
<path d="M315.488 366.79C319.567 366.79 322.874 363.486 322.874 359.41C322.874 355.333 319.567 352.029 315.488 352.029C311.408 352.029 308.101 355.333 308.101 359.41C308.101 363.486 311.408 366.79 315.488 366.79Z" fill="#1E293B" stroke="#1E293B" stroke-linecap="round" stroke-linejoin="round"/>
<path d="M315.488 360.327C317.185 360.327 318.562 358.951 318.562 357.255C318.562 355.559 317.185 354.183 315.488 354.183C313.79 354.183 312.414 355.559 312.414 357.255C312.414 358.951 313.79 360.327 315.488 360.327Z" fill="white" stroke="#1E293B" stroke-linecap="round" stroke-linejoin="round"/>
<path d="M315.488 366.79C317.102 366.79 318.584 366.271 319.8 365.387C319.767 363.034 317.854 361.122 315.488 361.122C313.122 361.122 311.198 363.023 311.175 365.387C312.392 366.26 313.873 366.79 315.488 366.79Z" fill="white" stroke="#1E293B" stroke-linecap="round" stroke-linejoin="round"/>
<path d="M328.104 353.266H353.204" stroke="#1E293B" stroke-miterlimit="10"/>
<path d="M328.635 360.404H380.383" stroke="#1E293B" stroke-miterlimit="10"/>
<path d="M328.635 364.934H380.383" stroke="#1E293B" stroke-miterlimit="10"/>
<path d="M129.913 237.956H270.65C271.911 237.956 272.928 238.973 272.928 240.233V315.909C272.928 318.019 271.214 319.721 269.113 319.721H131.461C129.349 319.721 127.646 318.008 127.646 315.909V240.233C127.646 238.973 128.663 237.956 129.924 237.956H129.913Z" fill="#1E293B" stroke="#1E293B" stroke-linecap="round" stroke-linejoin="round"/>
<path d="M129.913 237.956H270.65C271.911 237.956 272.928 238.973 272.928 240.233V251.293H127.635V240.233C127.635 238.973 128.652 237.956 129.913 237.956Z" fill="#1E293B" stroke="#1E293B" stroke-linecap="round" stroke-linejoin="round"/>
<path d="M243.184 247.779C244.814 247.779 246.136 246.458 246.136 244.829C246.136 243.2 244.814 241.879 243.184 241.879C241.553 241.879 240.232 243.2 240.232 244.829C240.232 246.458 241.553 247.779 243.184 247.779Z" fill="#1E293B" stroke="#1E293B" stroke-linecap="round" stroke-linejoin="round"/>
<path d="M252.538 247.779C254.169 247.779 255.491 246.458 255.491 244.829C255.491 243.2 254.169 241.879 252.538 241.879C250.908 241.879 249.586 243.2 249.586 244.829C249.586 246.458 250.908 247.779 252.538 247.779Z" fill="#1E293B" stroke="#1E293B" stroke-linecap="round" stroke-linejoin="round"/>
<path d="M261.904 247.779C263.534 247.779 264.856 246.458 264.856 244.829C264.856 243.2 263.534 241.879 261.904 241.879C260.273 241.879 258.952 243.2 258.952 244.829C258.952 246.458 260.273 247.779 261.904 247.779Z" fill="#1E293B" stroke="#1E293B" stroke-linecap="round" stroke-linejoin="round"/>
<path d="M173.047 264.044H143.215V292.529H173.047V264.044Z" fill="#1E293B" stroke="#1E293B" stroke-miterlimit="10"/>
<path d="M182.999 267.358H261.241" stroke="#1E293B" stroke-miterlimit="10"/>
<path d="M182.999 276.629H261.241" stroke="#1E293B" stroke-miterlimit="10"/>
<path d="M182.999 285.91H261.241" stroke="#1E293B" stroke-miterlimit="10"/>
<path d="M182.999 295.18H261.241" stroke="#1E293B" stroke-miterlimit="10"/>
<path d="M126.407 232.708H267.145C268.406 232.708 269.423 233.725 269.423 234.984V310.66C269.423 312.771 267.709 314.472 265.608 314.472H127.955C125.843 314.472 124.141 312.76 124.141 310.66V234.984C124.141 233.725 125.158 232.708 126.418 232.708H126.407Z" fill="white" stroke="#1E293B" stroke-linecap="round" stroke-linejoin="round"/>
<path d="M126.407 232.708H267.145C268.406 232.708 269.423 233.725 269.423 234.984V246.044H124.13V234.984C124.13 233.725 125.147 232.708 126.407 232.708Z" fill="#2563EB" stroke="#1E293B" stroke-linecap="round" stroke-linejoin="round"/>
<path d="M239.679 242.531C241.309 242.531 242.631 241.21 242.631 239.581C242.631 237.951 241.309 236.63 239.679 236.63C238.048 236.63 236.726 237.951 236.726 239.581C236.726 241.21 238.048 242.531 239.679 242.531Z" fill="white" stroke="#1E293B" stroke-linecap="round" stroke-linejoin="round"/>
<path d="M249.033 242.531C250.664 242.531 251.986 241.21 251.986 239.581C251.986 237.951 250.664 236.63 249.033 236.63C247.403 236.63 246.081 237.951 246.081 239.581C246.081 241.21 247.403 242.531 249.033 242.531Z" fill="white" stroke="#1E293B" stroke-linecap="round" stroke-linejoin="round"/>
<path d="M258.399 242.531C260.029 242.531 261.351 241.21 261.351 239.581C261.351 237.951 260.029 236.63 258.399 236.63C256.768 236.63 255.446 237.951 255.446 239.581C255.446 241.21 256.768 242.531 258.399 242.531Z" fill="white" stroke="#1E293B" stroke-linecap="round" stroke-linejoin="round"/>
<path d="M169.553 258.795H139.72V287.28H169.553V258.795Z" stroke="#1E293B" stroke-miterlimit="10"/>
<path d="M179.494 262.11H257.735" stroke="#1E293B" stroke-miterlimit="10"/>
<path d="M179.494 271.38H257.735" stroke="#1E293B" stroke-miterlimit="10"/>
<path d="M179.494 280.651H257.735" stroke="#1E293B" stroke-miterlimit="10"/>
<path d="M179.494 289.932H257.735" stroke="#1E293B" stroke-miterlimit="10"/>
<path d="M397.146 177.948H296.436C293.767 177.948 291.604 180.11 291.604 182.776V270.077C291.604 272.743 293.767 274.905 296.436 274.905H397.146C399.815 274.905 401.978 272.743 401.978 270.077V182.776C401.978 180.11 399.815 177.948 397.146 177.948Z" fill="#1E293B" stroke="#1E293B" stroke-linecap="round" stroke-linejoin="round"/>
<path d="M292.931 172.7H393.641C396.306 172.7 398.473 174.865 398.473 177.528V264.828C398.473 267.491 396.306 269.657 393.641 269.657H292.931C290.266 269.657 288.099 267.491 288.099 264.828V177.528C288.099 174.865 290.266 172.7 292.931 172.7Z" fill="white" stroke="#1E293B" stroke-linecap="round" stroke-linejoin="round"/>
<path d="M312.325 211.516H302.142V258.552H312.325V211.516Z" fill="#1E293B" stroke="#1E293B" stroke-linecap="round" stroke-linejoin="round"/>
<path d="M326.755 219.151H316.571V258.563H326.755V219.151Z" fill="#2563EB" stroke="#1E293B" stroke-linecap="round" stroke-linejoin="round"/>
<path d="M341.174 225.504H330.99V258.563H341.174V225.504Z" fill="white" stroke="#1E293B" stroke-linecap="round" stroke-linejoin="round"/>
<path d="M355.593 206.013H345.409V258.563H355.593V206.013Z" fill="#1E293B" stroke="#1E293B" stroke-linecap="round" stroke-linejoin="round"/>
<path d="M370.011 212.366H359.828V258.563H370.011V212.366Z" fill="#2563EB" stroke="#1E293B" stroke-linecap="round" stroke-linejoin="round"/>
<path d="M384.43 190.323H374.246V258.552H384.43V190.323Z" fill="white" stroke="#1E293B" stroke-linecap="round" stroke-linejoin="round"/>
<path d="M302.838 185.428H313.011" stroke="#1E293B" stroke-miterlimit="10"/>
<path d="M302.838 189.66H313.011" stroke="#1E293B" stroke-miterlimit="10"/>
<path d="M302.838 193.903H313.011" stroke="#1E293B" stroke-miterlimit="10"/>
<path d="M316.406 185.428H357.55" stroke="#1E293B" stroke-miterlimit="10"/>
<path d="M316.406 189.66H357.55" stroke="#1E293B" stroke-miterlimit="10"/>
<path d="M316.406 193.903H357.55" stroke="#1E293B" stroke-miterlimit="10"/>
<path d="M397.146 63.0691H296.436C293.767 63.0691 291.604 65.2309 291.604 67.8976V155.198C291.604 157.864 293.767 160.026 296.436 160.026H397.146C399.815 160.026 401.978 157.864 401.978 155.198V67.8976C401.978 65.2309 399.815 63.0691 397.146 63.0691Z" fill="#1E293B" stroke="#1E293B" stroke-linecap="round" stroke-linejoin="round"/>
<path d="M292.931 57.8207H393.641C396.306 57.8207 398.473 59.9863 398.473 62.6492V149.949C398.473 152.612 396.306 154.778 393.641 154.778H292.931C290.266 154.778 288.099 152.612 288.099 149.949V62.6492C288.099 59.9863 290.266 57.8207 292.931 57.8207Z" fill="white" stroke="#1E293B" stroke-linecap="round" stroke-linejoin="round"/>
<path d="M340.577 135.232C357.676 135.232 371.537 121.38 371.537 104.294C371.537 87.2072 357.676 73.3559 340.577 73.3559C323.478 73.3559 309.616 87.2072 309.616 104.294C309.616 121.38 323.478 135.232 340.577 135.232Z" fill="white" stroke="#1E293B" stroke-linecap="round" stroke-linejoin="round"/>
<path d="M370.631 96.8466C369.326 91.565 366.606 86.5597 362.47 82.4273C350.385 70.3505 330.78 70.3505 318.683 82.4273L340.577 104.305L370.631 96.8466Z" fill="#1E293B" stroke="#1E293B" stroke-linecap="round" stroke-linejoin="round"/>
<path d="M370.631 96.8466L340.577 104.305L331.631 133.928C342.191 137.099 354.122 134.524 362.459 126.182C370.797 117.84 373.141 107.023 370.62 96.8466H370.631Z" fill="#2563EB" stroke="#1E293B" stroke-linecap="round" stroke-linejoin="round"/>
<path d="M352.884 84.8029L363.056 71.6654H369.425" stroke="#1E293B" stroke-miterlimit="10"/>
<path d="M375.352 72.0852H385.536" stroke="#1E293B" stroke-miterlimit="10"/>
<path d="M375.352 76.3281H385.536" stroke="#1E293B" stroke-miterlimit="10"/>
<path d="M375.352 80.571H385.536" stroke="#1E293B" stroke-miterlimit="10"/>
<path d="M375.352 127.188H385.536" stroke="#1E293B" stroke-miterlimit="10"/>
<path d="M375.352 131.42H385.536" stroke="#1E293B" stroke-miterlimit="10"/>
<path d="M375.352 135.663H385.536" stroke="#1E293B" stroke-miterlimit="10"/>
<path d="M296.469 126.337H306.653" stroke="#1E293B" stroke-miterlimit="10"/>
<path d="M296.469 130.569H306.653" stroke="#1E293B" stroke-miterlimit="10"/>
<path d="M296.469 134.812H306.653" stroke="#1E293B" stroke-miterlimit="10"/>
<path d="M323.195 125.066L319.38 134.812H309.196" stroke="#1E293B" stroke-miterlimit="10"/>
<path d="M364.328 113.199H381.29V118.702" stroke="#1E293B" stroke-miterlimit="10"/>
<path d="M264.724 63.4226H164.013C161.345 63.4226 159.181 65.5844 159.181 68.2511V155.551C159.181 158.218 161.345 160.38 164.013 160.38H264.724C267.392 160.38 269.556 158.218 269.556 155.551V68.2511C269.556 65.5844 267.392 63.4226 264.724 63.4226Z" fill="#1E293B" stroke="#1E293B" stroke-linecap="round" stroke-linejoin="round"/>
<path d="M260.046 57.8207H159.336C156.667 57.8207 154.504 59.9825 154.504 62.6492V149.949C154.504 152.616 156.667 154.778 159.336 154.778H260.046C262.715 154.778 264.878 152.616 264.878 149.949V62.6492C264.878 59.9825 262.715 57.8207 260.046 57.8207Z" fill="white" stroke="#1E293B" stroke-linecap="round" stroke-linejoin="round"/>
<path d="M165.959 136.425V140.16" stroke="#1E293B" stroke-miterlimit="10"/>
<path d="M174.949 136.425V140.16" stroke="#1E293B" stroke-miterlimit="10"/>
<path d="M183.939 136.425V140.16" stroke="#1E293B" stroke-miterlimit="10"/>
<path d="M192.928 136.425V140.16" stroke="#1E293B" stroke-miterlimit="10"/>
<path d="M201.918 136.425V140.16" stroke="#1E293B" stroke-miterlimit="10"/>
<path d="M210.896 136.425V140.16" stroke="#1E293B" stroke-miterlimit="10"/>
<path d="M219.886 136.425V140.16" stroke="#1E293B" stroke-miterlimit="10"/>
<path d="M228.876 136.425V140.16" stroke="#1E293B" stroke-miterlimit="10"/>
<path d="M237.865 136.425V140.16" stroke="#1E293B" stroke-miterlimit="10"/>
<path d="M246.855 136.425V140.16" stroke="#1E293B" stroke-miterlimit="10"/>
<path d="M255.845 136.425V140.16" stroke="#1E293B" stroke-miterlimit="10"/>
<path d="M252.107 84.0184L242.366 89.2668L234.504 73.5437L224.386 86.6371L215.397 78.7811L206.783 69.0467L197.794 79.5324L188.804 104.979L179.062 95.6201L169.321 102.736V126.315H252.107V84.0184Z" fill="#2563EB" stroke="#1E293B" stroke-linecap="round" stroke-linejoin="round"/>
<path d="M169.553 68.8368H179.726" stroke="#1E293B" stroke-miterlimit="10"/>
<path d="M169.553 73.0797H179.726" stroke="#1E293B" stroke-miterlimit="10"/>
<path d="M169.553 77.3115H179.726" stroke="#1E293B" stroke-miterlimit="10"/>
<path d="M252.107 104.747L242.366 108.349L234.504 90.8689L224.386 103.111L215.397 100.117L206.783 118.835L197.794 93.7528L188.804 118.835L179.062 109.476L169.321 121.829V130.801H252.107V104.747Z" fill="#1E293B" stroke="#1E293B" stroke-linecap="round" stroke-linejoin="round"/>
<path d="M450.42 111.443C450.42 111.443 446.749 101.741 436.256 102.791C425.763 103.841 421.041 112.227 422.877 117.73C424.712 123.232 425.763 125.066 425.763 125.066C425.763 125.066 422.357 123.497 423.407 129C424.458 134.502 432.32 133.453 433.635 132.933C434.951 132.414 440.712 117.73 450.42 111.443Z" fill="#1E293B" stroke="#1E293B" stroke-linecap="round" stroke-linejoin="round"/>
<path d="M383.612 205.505L364.991 214.808C363.51 215.549 363.454 217.648 364.903 218.454L414.584 246.376C415.446 246.862 416.519 246.674 417.171 245.923L428.836 232.354C429.688 231.36 429.411 229.835 428.273 229.194L385.547 205.527C384.95 205.195 384.231 205.184 383.623 205.483L383.612 205.505Z" fill="#1E293B" stroke="#1E293B" stroke-linecap="round" stroke-linejoin="round"/>
<path d="M429.013 222.266L421.174 217.184C421.174 217.184 415.313 210.61 413.102 209.494C410.89 208.378 396.118 211.04 396.118 211.04L428.604 229.404L429.002 222.266H429.013Z" fill="white" stroke="#1E293B" stroke-linecap="round" stroke-linejoin="round"/>
<path d="M413.013 214.245C413.013 214.245 407.241 214.51 403.681 212.985C400.121 211.471 398.075 212.179 399.933 215.173C401.79 218.167 407.551 217.902 407.551 217.902C407.551 217.902 412.582 224.023 418.686 221.626" fill="white"/>
<path d="M413.013 214.245C413.013 214.245 407.241 214.51 403.681 212.985C400.121 211.471 398.075 212.179 399.933 215.173C401.79 218.167 407.551 217.902 407.551 217.902C407.551 217.902 412.582 224.023 418.686 221.626" stroke="#1E293B" stroke-linecap="round" stroke-linejoin="round"/>
<path d="M492.438 478.156C492.438 478.156 495.733 490.763 495.457 492.951C495.18 495.138 488.325 497.061 484.488 497.061C480.651 497.061 472.966 498.431 472.966 498.431L473.243 478.156H492.438Z" fill="white" stroke="#1E293B" stroke-linecap="round" stroke-linejoin="round"/>
<path d="M495.457 492.951C495.523 492.398 495.368 491.183 495.092 489.68C492.825 490.884 489.718 492.354 486.677 493.227C482.011 494.564 475.377 494.63 473.022 494.608L472.966 498.431C472.966 498.431 480.64 497.061 484.488 497.061C488.336 497.061 495.18 495.138 495.457 492.951Z" fill="white" stroke="#1E293B" stroke-linecap="round" stroke-linejoin="round"/>
<path d="M469.129 357.023C469.129 357.023 472.69 386.889 474.061 392.646C475.432 398.402 482.288 408.269 485.03 423.617C487.772 438.964 492.98 474.587 492.98 475.416C492.98 476.244 493.533 478.708 493.798 480.344C493.798 480.344 487.761 482.807 483.382 482.266C478.993 481.714 475.156 480.62 475.156 480.62C475.156 480.62 477.08 468.841 472.966 447.737C468.853 426.633 464.74 404.711 462.274 389.364C459.808 374.017 469.129 357.023 469.129 357.023Z" fill="#94A3B8" stroke="#1E293B" stroke-linecap="round" stroke-linejoin="round"/>
<path d="M455.142 474.863C455.142 474.863 453.494 477.603 448.839 481.714C444.173 485.824 435.405 490.21 432.928 491.304C430.462 492.398 428.538 492.398 429.091 494.862C429.644 497.326 433.757 499.249 446.097 499.249C458.437 499.249 471.606 498.696 472.977 498.431C474.348 498.166 478.462 498.155 478.462 495.138C478.462 492.122 477.091 480.067 477.091 480.067L455.153 474.863H455.142Z" fill="white" stroke="#1E293B" stroke-linecap="round" stroke-linejoin="round"/>
<path d="M472.966 498.431C474.337 498.155 478.451 498.155 478.451 495.138C478.451 494.696 478.418 494.056 478.373 493.282C473.685 493.89 463.037 495.216 451.029 496.232C440.458 497.127 432.961 495.337 429.002 493.978C428.991 494.232 429.002 494.52 429.08 494.862C429.633 497.326 433.746 499.249 446.086 499.249C458.426 499.249 471.595 498.696 472.966 498.431Z" fill="white" stroke="#1E293B" stroke-linecap="round" stroke-linejoin="round"/>
<path d="M426.072 293.998C426.072 293.998 425.796 315.644 428.814 340.04C431.833 364.426 440.601 394.027 440.601 394.027C440.601 394.027 444.991 417.871 446.362 426.092C447.733 434.312 454.865 466.653 454.865 466.653L451.847 470.764L452.4 477.891C452.4 477.891 454.865 478.443 463.369 480.355C471.872 482.277 477.08 482.001 477.08 482.001C477.08 482.001 477.632 467.747 477.356 465.836C477.08 463.913 475.432 454.875 475.167 451.859C474.89 448.842 475.72 415.407 473.796 407.739C471.872 400.071 468.588 388.834 468.588 378.967C468.588 369.1 475.996 320.87 475.996 320.87C475.996 320.87 483.946 309.633 483.946 303.058C483.946 296.484 483.128 293.192 483.128 293.192L426.083 294.009L426.072 293.998Z" fill="#CBD5E1" stroke="#1E293B" stroke-linecap="round" stroke-linejoin="round"/>
<path d="M464.95 457.361C465.558 463.416 465.834 467.449 465.834 467.449C465.834 467.449 464.076 468.333 464.95 471.416C465.834 474.498 466.277 476.697 466.277 476.697" stroke="#1E293B" stroke-width="0.75" stroke-linecap="round" stroke-linejoin="round"/>
<path d="M447.236 325.168C446.55 336.107 446.418 351.012 448.651 366.592C453.063 397.419 460.549 425.164 462.749 439.693C463.413 444.069 463.955 448.323 464.397 452.135" stroke="#1E293B" stroke-width="0.75" stroke-linecap="round" stroke-linejoin="round"/>
<path d="M449.082 307.589C449.082 307.589 448.253 312.439 447.59 320.306" stroke="#1E293B" stroke-width="0.75" stroke-linecap="round" stroke-linejoin="round"/>
<path d="M479.015 120.359C479.015 120.359 482.42 106.736 502.887 108.305C523.355 109.874 523.078 128.492 523.078 128.492L518.622 126.392C518.622 126.392 522.293 137.143 518.102 144.999C513.901 152.866 503.153 157.319 496.065 156.004C488.977 154.689 481.381 148.137 480.33 144.469C479.28 140.8 483.216 127.961 479.015 120.359Z" fill="#1E293B" stroke="#1E293B" stroke-linecap="round" stroke-linejoin="round"/>
<path d="M438.357 118.779C438.357 118.779 436.787 121.398 433.635 126.9C430.484 132.403 431.8 137.386 429.699 140.005C427.598 142.624 421.826 142.358 422.622 144.988C423.407 147.607 426.824 149.441 426.824 149.441C426.824 149.441 426.824 164.114 428.394 165.949C429.964 167.783 442.028 164.634 442.028 164.634C442.028 164.634 444.383 168.302 442.813 176.423C441.243 184.544 427.078 207.085 425.243 218.355C423.407 229.625 429.699 257.668 429.699 257.668L423.662 298.55C423.662 298.55 438.877 304.318 456.977 302.749C475.078 301.18 486.091 297.512 486.091 297.512L474.028 250.077C474.028 250.077 475.078 216.532 472.712 197.925C470.357 179.318 464.319 174.865 464.319 168.048C464.319 161.23 472.977 157.562 478.484 151.01C480.994 148.027 487.661 136.591 481.104 122.437C476.803 113.166 463.004 109.597 453.561 109.332C444.118 109.067 438.346 118.768 438.346 118.768L438.357 118.779Z" fill="white" stroke="#1E293B" stroke-linecap="round" stroke-linejoin="round"/>
<path d="M442.028 164.645L447.778 163.352L444.195 170.512C444.195 170.512 443.443 166.821 442.028 164.634V164.645Z" fill="#1E293B" stroke="#1E293B" stroke-linecap="round" stroke-linejoin="round"/>
<path d="M486.091 297.534L474.028 250.1C474.028 250.1 475.078 216.554 472.712 197.947C472.082 192.997 471.197 189.052 470.235 185.804C466.376 182.799 460.416 179.02 454.357 178.556C447.313 178.014 440.27 186.169 436.566 191.295C431.955 200.665 426.349 211.582 425.243 218.388C423.407 229.658 429.699 257.701 429.699 257.701L423.662 298.584C423.662 298.584 438.877 304.351 456.977 302.782C475.078 301.213 486.091 297.545 486.091 297.545V297.534Z" fill="#2563EB" stroke="#1E293B" stroke-linecap="round" stroke-linejoin="round"/>
<path d="M453.572 109.343C444.129 109.078 438.357 118.779 438.357 118.779C438.357 118.779 437.539 120.149 435.902 122.978C437.539 121.033 443.487 114.658 445.964 121.409C447.413 125.343 443.863 130.845 445.699 132.679C447.534 134.513 451.205 138.712 450.686 139.497C450.166 140.281 449.901 142.115 449.901 142.115C449.901 142.115 454.622 135.298 458.293 139.497C461.964 143.695 456.977 151.551 456.977 151.551L453.826 152.601C453.826 152.601 464.054 164.136 465.89 164.136C466.398 164.136 467.725 160.203 470.091 159.418C472.811 156.844 475.089 155.076 478.484 151.032C480.994 148.049 487.661 136.613 481.104 122.459C476.803 113.177 463.004 109.619 453.561 109.354L453.572 109.343Z" fill="#1E293B" stroke="#1E293B" stroke-linecap="round" stroke-linejoin="round"/>
<path d="M435.714 139.32C435.427 140.668 434.73 141.651 434.166 141.541C433.602 141.419 433.37 140.226 433.657 138.889C433.945 137.541 434.642 136.558 435.205 136.668C435.769 136.79 436.002 137.972 435.714 139.32Z" fill="#1E293B"/>
<path d="M433.635 132.933C433.635 132.933 436.521 129.784 438.357 133.718" stroke="#1E293B" stroke-linecap="round" stroke-linejoin="round"/>
<path d="M428.914 152.59C428.914 152.59 429.434 153.64 432.32 152.59" stroke="#1E293B" stroke-linecap="round" stroke-linejoin="round"/>
<path d="M446.23 192.699C446.23 192.699 442.293 198.201 440.723 208.422C439.153 218.642 440.458 251.934 440.458 251.934C440.458 251.934 418.166 245.647 410.824 241.978C403.482 238.31 401.116 236.741 401.116 236.741C401.116 236.741 398.761 231.238 396.914 229.139C395.078 227.04 390.092 226.52 388.256 225.206C386.421 223.891 385.105 219.703 382.749 221.272C380.394 222.841 381.434 224.94 382.484 225.725C383.535 226.509 387.471 230.443 387.471 230.443L377.508 225.99C377.508 225.99 376.723 229.924 378.028 231.227C379.333 232.531 381.964 234.896 381.964 234.896C381.964 234.896 385.901 240.398 388.256 241.713C390.611 243.028 394.813 244.067 395.598 244.332C397.953 245.116 400.309 247.116 402.409 248.387C406.866 251.094 411.322 253.812 415.778 256.508C422.534 260.585 430.053 264.132 437.638 266.795C442.415 268.474 454.102 273.601 458.249 268.463C460.04 266.242 459.487 259.657 459.952 256.862C462.882 239.282 466.664 221.592 466.664 203.704" fill="#2563EB"/>
<path d="M446.23 192.699C446.23 192.699 442.293 198.201 440.723 208.422C439.153 218.642 440.458 251.934 440.458 251.934C440.458 251.934 418.166 245.647 410.824 241.978C403.482 238.31 401.116 236.741 401.116 236.741C401.116 236.741 398.761 231.238 396.914 229.139C395.078 227.04 390.092 226.52 388.256 225.206C386.421 223.891 385.105 219.703 382.749 221.272C380.394 222.841 381.434 224.94 382.484 225.725C383.535 226.509 387.471 230.443 387.471 230.443L377.508 225.99C377.508 225.99 376.723 229.924 378.028 231.227C379.333 232.531 381.964 234.896 381.964 234.896C381.964 234.896 385.901 240.398 388.256 241.713C390.611 243.028 394.813 244.067 395.598 244.332C397.953 245.116 400.309 247.116 402.409 248.387C406.866 251.094 411.322 253.812 415.778 256.508C422.534 260.585 430.053 264.132 437.638 266.795C442.415 268.474 454.102 273.601 458.249 268.463C460.04 266.242 459.487 259.657 459.952 256.862C462.882 239.282 466.664 221.592 466.664 203.704" stroke="#1E293B" stroke-linecap="round" stroke-linejoin="round"/>
<path d="M432.507 249.591C425.353 247.426 415.302 244.21 410.824 241.967C403.482 238.299 401.116 236.73 401.116 236.73C401.116 236.73 398.761 231.227 396.914 229.128C395.078 227.029 390.092 226.509 388.256 225.194C386.421 223.88 385.105 219.692 382.749 221.261C380.394 222.83 381.434 224.929 382.484 225.714C383.535 226.498 387.471 230.432 387.471 230.432L377.508 225.979C377.508 225.979 376.723 229.913 378.028 231.216C379.333 232.52 381.964 234.885 381.964 234.885C381.964 234.885 385.901 240.387 388.256 241.702C390.611 243.017 394.813 244.056 395.598 244.321C397.953 245.105 400.309 247.105 402.409 248.376C406.866 251.083 411.322 253.801 415.778 256.497C419.991 259.038 424.502 261.381 429.146 263.425L432.496 249.58L432.507 249.591Z" fill="white" stroke="#1E293B" stroke-linecap="round" stroke-linejoin="round"/>
<path d="M448.065 259.524L440.458 251.934L442.548 259.005" stroke="#1E293B" stroke-linecap="round" stroke-linejoin="round"/>
<path d="M113.271 366.083C113.271 366.083 108.528 394.502 102.336 420.733C96.1324 446.964 97.9569 483.393 97.9569 483.393C97.9569 483.393 94.6729 490.31 97.592 493.592C100.511 496.873 105.244 495.779 106.338 495.779C107.433 495.779 115.085 495.415 115.085 495.415C115.085 495.415 120.923 460.808 123.101 429.473C125.291 398.137 123.466 350.416 121.277 352.239C119.087 354.062 114.355 363.531 114.355 363.531L113.26 366.083H113.271Z" fill="#1E293B" stroke="#1E293B" stroke-linecap="round" stroke-linejoin="round"/>
<path d="M98.3218 273.911C98.3218 273.911 93.9431 299.412 95.0377 306.705C96.1324 313.997 99.0516 323.102 99.0516 323.102C99.0516 323.102 108.893 366.824 109.987 370.094C111.082 373.376 109.987 412.358 107.798 429.484C105.609 446.61 109.257 457.902 109.987 463.361C110.717 468.83 110.352 486.675 110.352 486.675L109.622 496.873C109.622 496.873 114.731 498.696 123.842 498.696C132.953 498.696 152.282 499.79 152.282 499.79C152.282 499.79 163.947 499.426 162.852 494.321C161.758 489.216 148.633 486.675 144.984 483.393C141.335 480.111 138.781 477.194 138.781 477.194C138.781 477.194 139.145 473.548 138.416 471.725C137.686 469.902 134.767 469.902 135.132 467.35C135.497 464.797 141.7 406.866 146.432 391.939C151.165 377.011 154.814 315.798 154.449 305.224C154.084 294.661 151.895 278.629 151.895 278.629L98.2997 273.889L98.3218 273.911Z" fill="#1E293B" stroke="#1E293B" stroke-linecap="round" stroke-linejoin="round"/>
<path d="M102.114 174.467C102.114 174.467 91.3557 197.328 89.7855 213.007C88.2154 228.697 96.7406 267.679 96.7406 267.679C96.7406 267.679 93.3792 277.535 95.8449 279.104C98.3107 280.673 153.255 283.59 153.255 283.59C153.255 283.59 156.616 283.137 156.616 280.231C156.616 277.325 155.72 275.303 155.267 272.839C154.814 270.375 155.942 219.957 151.01 208.753C146.078 197.549 135.983 183.881 135.983 183.881L102.126 174.467H102.114Z" fill="#E2E8F0" stroke="#1E293B" stroke-linecap="round" stroke-linejoin="round"/>
<path d="M111.812 267.06C117.904 259.038 127.071 246.696 133.561 236.686" stroke="#1E293B" stroke-linecap="round" stroke-linejoin="round"/>
<path d="M105.365 275.446C105.365 275.446 106.582 273.9 108.561 271.325" stroke="#1E293B" stroke-linecap="round" stroke-linejoin="round"/>
<path d="M132.688 231.846C132.688 231.846 111.535 246.376 108.893 247.26" stroke="#1E293B" stroke-linecap="round" stroke-linejoin="round"/>
<path d="M148.08 113.067C148.08 113.067 151.662 101.189 152.337 97.609C153.011 94.029 154.803 90.659 154.803 90.659V99.3989C154.803 99.3989 157.49 96.261 160.409 92.449C163.328 88.637 166.015 88.869 164.898 92.902C163.781 96.935 160.862 101.421 160.641 102.084C160.42 102.747 159.292 107.686 157.954 110.603C156.616 113.52 153.244 117.321 153.244 117.321L148.091 113.067H148.08Z" fill="white" stroke="#1E293B" stroke-linecap="round" stroke-linejoin="round"/>
<path d="M133.506 122.028L148.08 113.067C148.08 113.067 152.116 112.614 153.232 117.321C154.349 122.028 153.686 119.343 153.686 119.343L142.253 135.475L133.506 122.028Z" fill="white" stroke="#1E293B" stroke-linecap="round" stroke-linejoin="round"/>
<path d="M131.483 116.205C131.483 116.205 120.492 104.78 117.805 105.675C115.118 106.57 116.456 111.277 116.456 111.277C116.456 111.277 109.954 108.813 109.733 110.603L109.512 112.393C109.512 112.393 97.8463 119.343 94.7171 126.735C91.5768 134.127 91.1345 141.298 94.7171 145.331C98.2997 149.364 107.046 163.706 107.046 163.706L107.267 170.655L129.47 176.257L131.494 166.843C131.494 166.843 142.031 166.843 142.927 165.274C143.823 163.706 144.276 146.447 144.276 146.447L148.986 140.624C148.986 140.624 140.461 130.768 139.123 127.851C137.785 124.934 134.192 119.564 131.494 116.194L131.483 116.205Z" fill="white" stroke="#1E293B" stroke-linecap="round" stroke-linejoin="round"/>
<path d="M142.916 150.822C142.916 150.822 141.866 152.214 139.079 149.43" stroke="#1E293B" stroke-linecap="round" stroke-linejoin="round"/>
<path d="M131.483 116.205C131.483 116.205 120.492 104.78 117.805 105.675C115.118 106.57 116.456 111.277 116.456 111.277C116.456 111.277 109.954 108.813 109.733 110.603L109.512 112.393C109.512 112.393 97.8463 119.343 94.7171 126.735C91.5768 134.127 91.1345 141.298 94.7171 145.331C97.4925 148.447 103.342 157.717 105.863 161.772C107.4 161.938 108.959 161.949 110.418 161.684C116.699 160.568 120.956 153.397 120.956 153.397C120.956 153.397 116.699 152.049 116.467 146.447C116.246 140.845 119.828 139.729 119.828 139.729C119.828 139.729 122.969 143.309 125.655 141.751C128.342 140.193 122.294 137.265 121.398 135.033C120.503 132.801 122.747 129.652 123.19 128.083C123.632 126.514 118.933 126.967 117.13 126.061C115.339 125.166 124.981 120.68 126.993 119.343C129.006 118.006 124.749 118.89 122.283 117.553C119.817 116.205 131.472 116.205 131.472 116.205H131.483Z" fill="#1E293B" stroke="#1E293B" stroke-linecap="round" stroke-linejoin="round"/>
<path d="M137.708 133.232C138.139 134.458 138.073 135.596 137.542 135.784C137.011 135.972 136.237 135.132 135.806 133.906C135.375 132.679 135.441 131.541 135.972 131.353C136.503 131.166 137.277 132.005 137.708 133.232Z" fill="#1E293B"/>
<path d="M132.611 129.652C132.611 129.652 133.506 123.376 137.542 126.072" stroke="#1E293B" stroke-linecap="round" stroke-linejoin="round"/>
<path d="M120.945 153.397L125.213 152.281L126.33 155.64" stroke="#1E293B" stroke-linecap="round" stroke-linejoin="round"/>
<path d="M101.44 166.402C102.114 166.402 137.1 177.384 137.1 177.384L137.774 187.693L100.555 176.489L101.451 166.402H101.44Z" fill="#E2E8F0" stroke="#1E293B" stroke-linecap="round" stroke-linejoin="round"/>
<path d="M107.942 215.913C107.942 215.913 149.65 234.067 161.083 235.183C172.516 236.299 224.32 182.522 224.32 182.522L218.261 174.677C218.261 174.677 175.878 196.411 170.725 198.201C165.572 199.991 122.736 186.323 119.596 185.649C116.456 184.975 109.501 186.102 106.814 189.682" fill="#E2E8F0"/>
<path d="M107.942 215.913C107.942 215.913 149.65 234.067 161.083 235.183C172.516 236.299 224.32 182.522 224.32 182.522L218.261 174.677C218.261 174.677 175.878 196.411 170.725 198.201C165.572 199.991 122.736 186.323 119.596 185.649C116.456 184.975 109.501 186.102 106.814 189.682" stroke="#1E293B" stroke-linecap="round" stroke-linejoin="round"/>
<path d="M121.398 221.747L105.023 223.084" stroke="#1E293B" stroke-linecap="round" stroke-linejoin="round"/>
<path d="M213.108 178.5L219.842 186.787" stroke="#1E293B" stroke-linecap="round" stroke-linejoin="round"/>
<path d="M218.272 174.688L224.552 165.949L227.239 157.883C227.693 156.535 231.95 153.629 233.299 151.828C234.648 150.038 235.986 146.005 237.335 147.121C238.684 148.237 238.451 150.701 238.009 151.828C237.556 152.944 235.322 155.408 235.09 156.535C234.858 157.662 248.547 154.071 248.547 154.071C248.547 154.071 250.791 154.745 250.117 156.535C249.442 158.325 247.198 161.242 247.198 161.242C247.198 161.242 244.511 169.76 242.487 171.771C240.464 173.793 231.054 176.478 231.054 176.478L224.331 182.533L218.272 174.688Z" fill="white" stroke="#1E293B" stroke-linecap="round" stroke-linejoin="round"/>
</g>
<defs>
<clipPath id="clip0_64_4336">
<rect width="530" height="502" fill="white"/>
</clipPath>
</defs>
</svg>
