<svg width="172" height="252" viewBox="0 0 172 252" fill="none" xmlns="http://www.w3.org/2000/svg">
<path d="M37.3784 162.162H150.892V251.351H61.7027V194.594H53.5946V251.351H37.3784V162.162Z" fill="#FDE047"/>
<path d="M90.081 0H81.9729V8.10811H90.081V0Z" fill="#DB8323"/>
<path d="M106.297 0H90.0811V8.10811H106.297V0Z" fill="#FFB913"/>
<path d="M90.081 8.10815H81.9729V16.2163H90.081V8.10815Z" fill="#FFB913"/>
<path d="M98.1892 8.10815H90.0811V16.2163H98.1892V8.10815Z" fill="#DB8323"/>
<path d="M114.406 8.10815H98.1895V16.2163H114.406V8.10815Z" fill="#FFB913"/>
<path d="M90.081 16.2161H81.9729V24.3242H90.081V16.2161Z" fill="#FFB913"/>
<path d="M98.1892 16.2161H90.0811V24.3242H98.1892V16.2161Z" fill="#DB8323"/>
<path d="M114.406 16.2161H98.1895V24.3242H114.406V16.2161Z" fill="#FFB913"/>
<path d="M90.081 24.3242H81.9729V32.4323H90.081V24.3242Z" fill="#DB8323"/>
<path d="M114.405 24.3242H90.0811V32.4323H114.405V24.3242Z" fill="#FFB913"/>
<path d="M114.406 32.4324H73.865V40.5405H114.406V32.4324Z" fill="#FFB913"/>
<path d="M114.405 40.5403H65.7568V48.6484H114.405V40.5403Z" fill="#FFB913"/>
<path d="M106.297 48.6482H57.6487V56.7563H106.297V48.6482Z" fill="#FFB913"/>
<path d="M98.1892 56.7568H49.5405V64.8649H98.1892V56.7568Z" fill="#FFB913"/>
<path d="M106.298 56.7568H98.1895V64.8649H106.298V56.7568Z" fill="#DB8323"/>
<path d="M163.054 56.7568H106.297V64.8649H163.054V56.7568Z" fill="#FFB913"/>
<path d="M90.0812 64.8647H25.2163V72.9729H90.0812V64.8647Z" fill="#FFB913"/>
<path d="M98.1892 64.8647H90.0811V72.9729H98.1892V64.8647Z" fill="#DB8323"/>
<path d="M154.946 64.8647H98.1895V72.9729H154.946V64.8647Z" fill="#FFB913"/>
<path d="M163.054 64.8647H154.946V72.9729H163.054V64.8647Z" fill="#DB8323"/>
<path d="M171.162 64.8647H163.054V72.9729H171.162V64.8647Z" fill="#FFB913"/>
<path d="M90.0813 72.9729H0.89209V81.081H90.0813V72.9729Z" fill="#FFB913"/>
<path d="M98.1892 72.9729H90.0811V81.081H98.1892V72.9729Z" fill="#DB8323"/>
<path d="M154.946 72.9729H98.1895V81.081H154.946V72.9729Z" fill="#FFB913"/>
<path d="M163.054 72.9729H154.946V81.081H163.054V72.9729Z" fill="#DB8323"/>
<path d="M171.162 72.9729H163.054V81.081H171.162V72.9729Z" fill="#FFB913"/>
<path d="M106.297 81.0811H0.89209V89.1892H106.297V81.0811Z" fill="#FFB913"/>
<path d="M114.405 81.0811H106.297V89.1892H114.405V81.0811Z" fill="#DB8323"/>
<path d="M163.054 81.0811H114.406V89.1892H163.054V81.0811Z" fill="#FFB913"/>
<path d="M171.162 81.0811H163.054V89.1892H171.162V81.0811Z" fill="#DB8323"/>
<path d="M106.297 89.189H0.89209V97.2971H106.297V89.189Z" fill="#FFB913"/>
<path d="M163.054 89.189H106.297V97.2971H163.054V89.189Z" fill="#DB8323"/>
<path d="M81.9732 97.2971H0.89209V105.405H81.9732V97.2971Z" fill="#FFB913"/>
<path d="M90.081 97.2971H81.9729V105.405H90.081V97.2971Z" fill="#DB8323"/>
<path d="M171.162 97.2971H90.0811V105.405H171.162V97.2971Z" fill="#FFB913"/>
<path d="M81.9732 105.405H0.89209V113.513H81.9732V105.405Z" fill="#FFB913"/>
<path d="M90.081 105.405H81.9729V113.513H90.081V105.405Z" fill="#DB8323"/>
<path d="M154.946 105.405H90.0811V113.513H154.946V105.405Z" fill="#FFB913"/>
<path d="M163.054 105.405H154.946V113.513H163.054V105.405Z" fill="#DB8323"/>
<path d="M171.162 105.405H163.054V113.513H171.162V105.405Z" fill="#FFB913"/>
<path d="M81.9732 113.514H0.89209V121.622H81.9732V113.514Z" fill="#FFB913"/>
<path d="M90.081 113.514H81.9729V121.622H90.081V113.514Z" fill="#DB8323"/>
<path d="M163.054 113.514H90.0811V121.622H163.054V113.514Z" fill="#FFB913"/>
<path d="M171.162 113.514H163.054V121.622H171.162V113.514Z" fill="#DB8323"/>
<path d="M98.1894 121.622H0.89209V129.73H98.1894V121.622Z" fill="#FFB913"/>
<path d="M163.054 121.622H98.1895V129.73H163.054V121.622Z" fill="#DB8323"/>
<path d="M9.0002 129.729H0.89209V137.838H9.0002V129.729Z" fill="#FFB913"/>
<path d="M25.2162 129.729H9V137.838H25.2162V129.729Z" fill="#DB8323"/>
<path d="M65.7568 129.729H25.2163V137.838H65.7568V129.729Z" fill="#FFB913"/>
<path d="M73.8649 129.729H65.7568V137.838H73.8649V129.729Z" fill="#DB8323"/>
<path d="M90.0812 129.729H73.865V137.838H90.0812V129.729Z" fill="#FFB913"/>
<path d="M98.1892 129.729H90.0811V137.838H98.1892V129.729Z" fill="#DB8323"/>
<path d="M163.054 129.729H98.1895V137.838H163.054V129.729Z" fill="#FFB913"/>
<path d="M65.757 137.838H0.89209V145.946H65.757V137.838Z" fill="#FFB913"/>
<path d="M98.1893 137.838H65.7568V145.946H98.1893V137.838Z" fill="#DB8323"/>
<path d="M146.838 137.838H98.1895V145.946H146.838V137.838Z" fill="#FFB913"/>
<path d="M154.946 137.838H146.838V145.946H154.946V137.838Z" fill="#DB8323"/>
<path d="M163.054 137.838H154.946V145.946H163.054V137.838Z" fill="#FFB913"/>
<path d="M57.6487 145.946H25.2163V154.054H57.6487V145.946Z" fill="#FFB913"/>
<path d="M65.7568 145.946H57.6487V154.054H65.7568V145.946Z" fill="#DB8323"/>
<path d="M90.0812 145.946H65.7568V154.054H90.0812V145.946Z" fill="#FFB913"/>
<path d="M98.1892 145.946H90.0811V154.054H98.1892V145.946Z" fill="#DB8323"/>
<path d="M154.946 145.946H98.1895V154.054H154.946V145.946Z" fill="#FFB913"/>
<path d="M163.054 145.946H154.946V154.054H163.054V145.946Z" fill="#DB8323"/>
<path d="M98.1893 154.054H33.3245V162.162H98.1893V154.054Z" fill="#FFB913"/>
<path d="M154.946 154.054H98.1895V162.162H154.946V154.054Z" fill="#DB8323"/>
<path d="M94.1355 81.0811H45.4868V89.1892H94.1355V81.0811Z" fill="#2563EB"/>
<path d="M150.892 81.0811H102.243V89.1892H150.892V81.0811Z" fill="#2563EB"/>
<path d="M53.5949 89.189H45.4868V97.2971H53.5949V89.189Z" fill="#2563EB"/>
<path d="M69.8109 89.189H53.5947V97.2971H69.8109V89.189Z" fill="white"/>
<path d="M86.0273 89.189H69.811V97.2971H86.0273V89.189Z" fill="black"/>
<path d="M94.1355 89.189H86.0273V97.2971H94.1355V89.189Z" fill="#2563EB"/>
<path d="M110.352 89.189H102.243V97.2971H110.352V89.189Z" fill="#2563EB"/>
<path d="M126.568 89.189H110.352V97.2971H126.568V89.189Z" fill="white"/>
<path d="M142.784 89.189H126.568V97.2971H142.784V89.189Z" fill="black"/>
<path d="M150.892 89.189H142.784V97.2971H150.892V89.189Z" fill="#2563EB"/>
<path d="M53.5948 97.2971H21.1624V105.405H53.5948V97.2971Z" fill="#2563EB"/>
<path d="M69.8109 97.2971H53.5947V105.405H69.8109V97.2971Z" fill="white"/>
<path d="M86.0273 97.2971H69.811V105.405H86.0273V97.2971Z" fill="black"/>
<path d="M110.352 97.2971H86.0273V105.405H110.352V97.2971Z" fill="#2563EB"/>
<path d="M126.568 97.2971H110.352V105.405H126.568V97.2971Z" fill="white"/>
<path d="M142.784 97.2971H126.568V105.405H142.784V97.2971Z" fill="black"/>
<path d="M150.892 97.2971H142.784V105.405H150.892V97.2971Z" fill="#2563EB"/>
<path d="M29.2705 105.405H21.1624V113.513H29.2705V105.405Z" fill="#2563EB"/>
<path d="M53.5949 105.405H45.4868V113.513H53.5949V105.405Z" fill="#2563EB"/>
<path d="M69.8109 105.405H53.5947V113.513H69.8109V105.405Z" fill="white"/>
<path d="M86.0273 105.405H69.811V113.513H86.0273V105.405Z" fill="black"/>
<path d="M94.1355 105.405H86.0273V113.513H94.1355V105.405Z" fill="#2563EB"/>
<path d="M110.352 105.405H102.243V113.513H110.352V105.405Z" fill="#2563EB"/>
<path d="M126.568 105.405H110.352V113.513H126.568V105.405Z" fill="white"/>
<path d="M142.784 105.405H126.568V113.513H142.784V105.405Z" fill="black"/>
<path d="M150.892 105.405H142.784V113.513H150.892V105.405Z" fill="#2563EB"/>
<path d="M29.2705 113.514H21.1624V121.622H29.2705V113.514Z" fill="#2563EB"/>
<path d="M53.5949 113.514H45.4868V121.622H53.5949V113.514Z" fill="#2563EB"/>
<path d="M69.8109 113.514H53.5947V121.622H69.8109V113.514Z" fill="white"/>
<path d="M86.0273 113.514H69.811V121.622H86.0273V113.514Z" fill="black"/>
<path d="M94.1355 113.514H86.0273V121.622H94.1355V113.514Z" fill="#2563EB"/>
<path d="M110.352 113.514H102.243V121.622H110.352V113.514Z" fill="#2563EB"/>
<path d="M126.568 113.514H110.352V121.622H126.568V113.514Z" fill="white"/>
<path d="M142.784 113.514H126.568V121.622H142.784V113.514Z" fill="black"/>
<path d="M150.892 113.514H142.784V121.622H150.892V113.514Z" fill="#2563EB"/>
<path d="M94.1355 121.622H45.4868V129.73H94.1355V121.622Z" fill="#2563EB"/>
<path d="M150.892 121.622H102.243V129.73H150.892V121.622Z" fill="#2563EB"/>
<path d="M110.352 178.378H86.0273V186.487H110.352V178.378Z" fill="#C084FC"/>
<path d="M94.1355 186.486H86.0273V194.594H94.1355V186.486Z" fill="#C084FC"/>
<path d="M110.352 186.486H102.243V194.594H110.352V186.486Z" fill="#C084FC"/>
<path d="M118.46 194.594H86.0273V202.703H118.46V194.594Z" fill="#C084FC"/>
<path d="M110.352 202.703H86.0273V210.811H110.352V202.703Z" fill="#C084FC"/>
<path d="M77.9191 210.811H69.811V218.919H77.9191V210.811Z" fill="#C084FC"/>
<path d="M110.352 210.811H86.0273V218.919H110.352V210.811Z" fill="#C084FC"/>
<path d="M118.46 218.919H69.811V227.027H118.46V218.919Z" fill="#C084FC"/>
<path d="M102.243 227.027H94.1353V235.135H102.243V227.027Z" fill="#C084FC"/>
</svg>
