<svg width="212" height="224" viewBox="0 0 212 224" fill="none" xmlns="http://www.w3.org/2000/svg">
<path d="M49.4326 134.108H162.946V223.297H73.7569V166.541H65.6488V223.297H49.4326V134.108Z" fill="#FB923C"/>
<path d="M73.7568 0.324219H33.2163V8.43233H73.7568V0.324219Z" fill="black"/>
<path d="M106.189 0.324219H73.7568V8.43233H106.189V0.324219Z" fill="#909B0E"/>
<path d="M130.514 0.324219H106.189V8.43233H130.514V0.324219Z" fill="#FFC110"/>
<path d="M65.6488 8.43237H41.3245V16.5405H65.6488V8.43237Z" fill="black"/>
<path d="M98.0811 8.43237H65.6487V16.5405H98.0811V8.43237Z" fill="#909B0E"/>
<path d="M138.622 8.43237H98.0811V16.5405H138.622V8.43237Z" fill="#FFC110"/>
<path d="M57.5407 16.5403H49.4326V24.6484H57.5407V16.5403Z" fill="black"/>
<path d="M89.973 16.5403H57.5405V24.6484H89.973V16.5403Z" fill="#909B0E"/>
<path d="M146.73 16.5403H89.9729V24.6484H146.73V16.5403Z" fill="#FFC110"/>
<path d="M81.8649 24.6482H57.5405V32.7563H81.8649V24.6482Z" fill="#909B0E"/>
<path d="M154.838 24.6482H81.865V32.7563H154.838V24.6482Z" fill="#FFC110"/>
<path d="M73.7567 32.7568H57.5405V40.8649H73.7567V32.7568Z" fill="#909B0E"/>
<path d="M89.9731 32.7568H73.7568V40.8649H89.9731V32.7568Z" fill="#FFC110"/>
<path d="M98.081 32.7568H89.9729V40.8649H98.081V32.7568Z" fill="#DB8323"/>
<path d="M154.838 32.7568H98.0811V40.8649H154.838V32.7568Z" fill="#FFC110"/>
<path d="M65.6486 40.8647H57.5405V48.9729H65.6486V40.8647Z" fill="#909B0E"/>
<path d="M89.973 40.8647H65.6487V48.9729H89.973V40.8647Z" fill="#FFC110"/>
<path d="M98.081 40.8647H89.9729V48.9729H98.081V40.8647Z" fill="#DB8323"/>
<path d="M122.405 40.8647H98.0811V48.9729H122.405V40.8647Z" fill="#FFC110"/>
<path d="M138.622 40.8647H122.406V48.9729H138.622V40.8647Z" fill="#DB8323"/>
<path d="M154.838 40.8647H138.622V48.9729H154.838V40.8647Z" fill="#FFC110"/>
<path d="M73.7567 48.9729H57.5405V57.081H73.7567V48.9729Z" fill="#FFC110"/>
<path d="M81.8649 48.9729H73.7568V57.081H81.8649V48.9729Z" fill="#DB8323"/>
<path d="M122.406 48.9729H81.865V57.081H122.406V48.9729Z" fill="#FFC110"/>
<path d="M138.622 48.9729H122.406V57.081H138.622V48.9729Z" fill="#DB8323"/>
<path d="M154.838 48.9729H138.622V57.081H154.838V48.9729Z" fill="#FFC110"/>
<path d="M8.89204 57.0811H0.783936V65.1892H8.89204V57.0811Z" fill="#FFC110"/>
<path d="M122.405 57.0811H57.5405V65.1892H122.405V57.0811Z" fill="#FFC110"/>
<path d="M138.622 57.0811H122.406V65.1892H138.622V57.0811Z" fill="#DB8323"/>
<path d="M154.838 57.0811H138.622V65.1892H154.838V57.0811Z" fill="#FFC110"/>
<path d="M211.595 57.0811H203.487V65.1892H211.595V57.0811Z" fill="#FFC110"/>
<path d="M17.0002 65.189H0.783936V73.2971H17.0002V65.189Z" fill="#FFC110"/>
<path d="M122.405 65.189H57.5405V73.2971H122.405V65.189Z" fill="#FFC110"/>
<path d="M138.622 65.189H122.406V73.2971H138.622V65.189Z" fill="#DB8323"/>
<path d="M154.838 65.189H138.622V73.2971H154.838V65.189Z" fill="#FFC110"/>
<path d="M211.595 65.189H195.378V73.2971H211.595V65.189Z" fill="#FFC110"/>
<path d="M25.1083 73.2971H0.783936V81.4052H25.1083V73.2971Z" fill="#FFC110"/>
<path d="M154.838 73.2971H57.5405V81.4052H154.838V73.2971Z" fill="#FFC110"/>
<path d="M211.595 73.2971H187.27V81.4052H211.595V73.2971Z" fill="#FFC110"/>
<path d="M8.89204 81.405H0.783936V89.5131H8.89204V81.405Z" fill="#FFC110"/>
<path d="M17.0002 81.405H8.89209V89.5131H17.0002V81.405Z" fill="#DB8323"/>
<path d="M33.2162 81.405H17V89.5131H33.2162V81.405Z" fill="#FFC110"/>
<path d="M162.946 81.405H49.4326V89.5131H162.946V81.405Z" fill="#FFC110"/>
<path d="M211.595 81.405H179.162V89.5131H211.595V81.405Z" fill="#FFC110"/>
<path d="M17.0002 89.5137H0.783936V97.6218H17.0002V89.5137Z" fill="#FFC110"/>
<path d="M25.1081 89.5137H17V97.6218H25.1081V89.5137Z" fill="#DB8323"/>
<path d="M41.3244 89.5137H25.1082V97.6218H41.3244V89.5137Z" fill="#FFC110"/>
<path d="M162.946 89.5137H49.4326V97.6218H162.946V89.5137Z" fill="#FFC110"/>
<path d="M211.595 89.5137H171.054V97.6218H211.595V89.5137Z" fill="#FFC110"/>
<path d="M25.1083 97.6216H0.783936V105.73H25.1083V97.6216Z" fill="#FFC110"/>
<path d="M33.2163 97.6216H25.1082V105.73H33.2163V97.6216Z" fill="#DB8323"/>
<path d="M179.162 97.6216H33.2163V105.73H179.162V97.6216Z" fill="#FFC110"/>
<path d="M187.27 97.6216H179.162V105.73H187.27V97.6216Z" fill="#DB8323"/>
<path d="M211.595 97.6216H187.27V105.73H211.595V97.6216Z" fill="#FFC110"/>
<path d="M171.054 105.729H8.89209V113.838H171.054V105.729Z" fill="#FFC110"/>
<path d="M179.162 105.729H171.054V113.838H179.162V105.729Z" fill="#DB8323"/>
<path d="M203.487 105.729H179.162V113.838H203.487V105.729Z" fill="#FFC110"/>
<path d="M98.0811 113.838H17V121.946H98.0811V113.838Z" fill="#FFC110"/>
<path d="M122.405 113.838H98.0811V121.946H122.405V113.838Z" fill="#DB8323"/>
<path d="M195.378 113.838H122.406V121.946H195.378V113.838Z" fill="#FFC110"/>
<path d="M73.7568 121.946H25.1082V130.054H73.7568V121.946Z" fill="#FFC110"/>
<path d="M81.8649 121.946H73.7568V130.054H81.8649V121.946Z" fill="#FFF0BE"/>
<path d="M130.514 121.946H81.865V130.054H130.514V121.946Z" fill="#FFC110"/>
<path d="M138.622 121.946H130.513V130.054H138.622V121.946Z" fill="#FFF0BE"/>
<path d="M187.27 121.946H138.622V130.054H187.27V121.946Z" fill="#FFC110"/>
<path d="M65.6487 130.054H33.2163V138.162H65.6487V130.054Z" fill="#FFC110"/>
<path d="M89.973 130.054H65.6487V138.162H89.973V130.054Z" fill="#FFF0BE"/>
<path d="M130.513 130.054H89.9729V138.162H130.513V130.054Z" fill="#FFC110"/>
<path d="M146.73 130.054H130.513V138.162H146.73V130.054Z" fill="#FFF0BE"/>
<path d="M179.162 130.054H146.73V138.162H179.162V130.054Z" fill="#FFC110"/>
<path d="M106.189 57.0811H57.5405V65.1892H106.189V57.0811Z" fill="#2563EB"/>
<path d="M162.946 57.0811H114.297V65.1892H162.946V57.0811Z" fill="#2563EB"/>
<path d="M65.6486 65.189H57.5405V73.2971H65.6486V65.189Z" fill="#2563EB"/>
<path d="M81.8649 65.189H65.6487V73.2971H81.8649V65.189Z" fill="white"/>
<path d="M98.0812 65.189H81.865V73.2971H98.0812V65.189Z" fill="black"/>
<path d="M106.189 65.189H98.0811V73.2971H106.189V65.189Z" fill="#2563EB"/>
<path d="M122.405 65.189H114.297V73.2971H122.405V65.189Z" fill="#2563EB"/>
<path d="M138.622 65.189H122.406V73.2971H138.622V65.189Z" fill="white"/>
<path d="M154.838 65.189H138.622V73.2971H154.838V65.189Z" fill="black"/>
<path d="M162.946 65.189H154.838V73.2971H162.946V65.189Z" fill="#2563EB"/>
<path d="M65.6487 73.2971H33.2163V81.4052H65.6487V73.2971Z" fill="#2563EB"/>
<path d="M81.8649 73.2971H65.6487V81.4052H81.8649V73.2971Z" fill="white"/>
<path d="M98.0812 73.2971H81.865V81.4052H98.0812V73.2971Z" fill="black"/>
<path d="M122.405 73.2971H98.0811V81.4052H122.405V73.2971Z" fill="#2563EB"/>
<path d="M138.622 73.2971H122.406V81.4052H138.622V73.2971Z" fill="white"/>
<path d="M154.838 73.2971H138.622V81.4052H154.838V73.2971Z" fill="black"/>
<path d="M162.946 73.2971H154.838V81.4052H162.946V73.2971Z" fill="#2563EB"/>
<path d="M41.3244 81.405H33.2163V89.5131H41.3244V81.405Z" fill="#2563EB"/>
<path d="M65.6486 81.405H57.5405V89.5131H65.6486V81.405Z" fill="#2563EB"/>
<path d="M81.8649 81.405H65.6487V89.5131H81.8649V81.405Z" fill="white"/>
<path d="M98.0812 81.405H81.865V89.5131H98.0812V81.405Z" fill="black"/>
<path d="M106.189 81.405H98.0811V89.5131H106.189V81.405Z" fill="#2563EB"/>
<path d="M122.405 81.405H114.297V89.5131H122.405V81.405Z" fill="#2563EB"/>
<path d="M138.622 81.405H122.406V89.5131H138.622V81.405Z" fill="white"/>
<path d="M154.838 81.405H138.622V89.5131H154.838V81.405Z" fill="black"/>
<path d="M162.946 81.405H154.838V89.5131H162.946V81.405Z" fill="#2563EB"/>
<path d="M41.3244 89.5137H33.2163V97.6218H41.3244V89.5137Z" fill="#2563EB"/>
<path d="M65.6486 89.5137H57.5405V97.6218H65.6486V89.5137Z" fill="#2563EB"/>
<path d="M81.8649 89.5137H65.6487V97.6218H81.8649V89.5137Z" fill="white"/>
<path d="M98.0812 89.5137H81.865V97.6218H98.0812V89.5137Z" fill="black"/>
<path d="M106.189 89.5137H98.0811V97.6218H106.189V89.5137Z" fill="#2563EB"/>
<path d="M122.405 89.5137H114.297V97.6218H122.405V89.5137Z" fill="#2563EB"/>
<path d="M138.622 89.5137H122.406V97.6218H138.622V89.5137Z" fill="white"/>
<path d="M154.838 89.5137H138.622V97.6218H154.838V89.5137Z" fill="black"/>
<path d="M162.946 89.5137H154.838V97.6218H162.946V89.5137Z" fill="#2563EB"/>
<path d="M106.189 97.6216H57.5405V105.73H106.189V97.6216Z" fill="#2563EB"/>
<path d="M162.946 97.6216H114.297V105.73H162.946V97.6216Z" fill="#2563EB"/>
<path d="M122.405 158.432H114.297V166.54H122.405V158.432Z" fill="#2563EB"/>
<path d="M106.189 166.54H98.0811V174.648H106.189V166.54Z" fill="#2563EB"/>
<path d="M138.622 166.54H130.513V174.648H138.622V166.54Z" fill="#2563EB"/>
<path d="M130.514 174.649H106.189V182.757H130.514V174.649Z" fill="#2563EB"/>
<path d="M98.081 182.757H89.9729V190.865H98.081V182.757Z" fill="#2563EB"/>
<path d="M130.514 182.757H106.189V190.865H130.514V182.757Z" fill="#2563EB"/>
<path d="M146.73 182.757H138.622V190.865H146.73V182.757Z" fill="#2563EB"/>
</svg>
