<svg width="163" height="228" viewBox="0 0 163 228" fill="none" xmlns="http://www.w3.org/2000/svg">
<path fill-rule="evenodd" clip-rule="evenodd" d="M24.3242 137.838H137.838V145.946H24.3242V137.838ZM24.3242 145.946H137.838V154.054H24.3242V145.946ZM137.838 154.054H24.3242V162.162V162.162V170.27H137.838V162.162V162.162V154.054ZM40.5404 170.27H24.3242V178.378H40.5404V170.27ZM48.6487 170.27H137.838V178.378H48.6487V170.27ZM40.5404 178.378H24.3242V186.486V186.487V194.594H40.5404V186.487V186.486V178.378ZM48.6487 178.378H137.838V186.486V186.487V194.594H48.6487V186.487V186.486V178.378ZM40.5404 194.595H24.3242V202.703H40.5404V194.595ZM48.6487 194.595H137.838V202.703H48.6487V194.595ZM40.5404 202.703H24.3242V210.811V210.811V218.919H40.5404V210.811V210.811V202.703ZM48.6487 202.703H137.838V210.811V210.811V218.919H48.6487V210.811V210.811V202.703ZM40.5404 218.919H24.3242V227.027H40.5404V218.919ZM48.6487 218.919H137.838V227.027H48.6487V218.919Z" fill="#A3E635"/>
<path d="M64.8649 154.865H56.7568V162.973H64.8649V154.865Z" fill="#CEC189"/>
<path d="M81.081 154.865H64.8647V162.973H81.081V154.865Z" fill="#909B0E"/>
<path d="M89.1892 154.865H81.0811V162.973H89.1892V154.865Z" fill="#CEC189"/>
<path d="M113.514 154.865H89.1892V162.973H113.514V154.865Z" fill="#909B0E"/>
<path d="M72.9731 162.973H56.7568V171.081H72.9731V162.973Z" fill="#909B0E"/>
<path d="M81.081 162.973H72.9729V171.081H81.081V162.973Z" fill="#CEC189"/>
<path d="M89.1892 162.973H81.0811V171.081H89.1892V162.973Z" fill="#74580D"/>
<path d="M97.2973 162.973H89.1892V171.081H97.2973V162.973Z" fill="#CEC189"/>
<path d="M113.513 162.973H97.2971V171.081H113.513V162.973Z" fill="#909B0E"/>
<path d="M72.9731 171.081H56.7568V179.189H72.9731V171.081Z" fill="#909B0E"/>
<path d="M81.081 171.081H72.9729V179.189H81.081V171.081Z" fill="#CEC189"/>
<path d="M89.1892 171.081H81.0811V179.189H89.1892V171.081Z" fill="#74580D"/>
<path d="M97.2973 171.081H89.1892V179.189H97.2973V171.081Z" fill="#CEC189"/>
<path d="M113.513 171.081H97.2971V179.189H113.513V171.081Z" fill="#909B0E"/>
<path d="M81.0812 179.189H56.7568V187.298H81.0812V179.189Z" fill="#909B0E"/>
<path d="M89.1892 179.189H81.0811V187.298H89.1892V179.189Z" fill="#CEC189"/>
<path d="M105.405 179.189H89.1892V187.298H105.405V179.189Z" fill="#909B0E"/>
<path d="M113.513 179.189H105.405V187.298H113.513V179.189Z" fill="#CEC189"/>
<path d="M72.9729 187.297H64.8647V195.405H72.9729V187.297Z" fill="#63A0F9"/>
<path d="M89.1892 187.297H81.0811V195.405H89.1892V187.297Z" fill="#63A0F9"/>
<path d="M105.405 187.297H97.2971V195.405H105.405V187.297Z" fill="#63A0F9"/>
<path d="M72.9729 195.405H64.8647V203.513H72.9729V195.405Z" fill="#63A0F9"/>
<path d="M105.405 203.513H97.2971V211.622H105.405V203.513Z" fill="#63A0F9"/>
<path d="M16.2163 0H8.10815V8.10811H16.2163V0Z" fill="#EAB118"/>
<path d="M89.1891 0H72.9729V8.10811H89.1891V0Z" fill="#EAB118"/>
<path d="M154.054 0H145.946V8.10811H154.054V0Z" fill="#EAB118"/>
<path d="M16.2163 8.10815H8.10815V16.2163H16.2163V8.10815Z" fill="#EAB118"/>
<path d="M89.1891 8.10815H72.9729V16.2163H89.1891V8.10815Z" fill="#EAB118"/>
<path d="M154.054 8.10815H145.946V16.2163H154.054V8.10815Z" fill="#EAB118"/>
<path d="M24.3244 16.2161H8.10815V24.3242H24.3244V16.2161Z" fill="#EAB118"/>
<path d="M97.2972 16.2161H64.8647V24.3242H97.2972V16.2161Z" fill="#EAB118"/>
<path d="M154.054 16.2161H137.838V24.3242H154.054V16.2161Z" fill="#EAB118"/>
<path d="M16.2162 24.324H0V32.4321H16.2162V24.324Z" fill="#257CED"/>
<path d="M24.3244 24.324H16.2163V32.4321H24.3244V24.324Z" fill="#DB8323"/>
<path d="M32.4323 24.324H24.3242V32.4321H32.4323V24.324Z" fill="#EAB118"/>
<path d="M64.8649 24.324H56.7568V32.4321H64.8649V24.324Z" fill="#EAB118"/>
<path d="M97.2972 24.324H64.8647V32.4321H97.2972V24.324Z" fill="#34AC80"/>
<path d="M105.405 24.324H97.2971V32.4321H105.405V24.324Z" fill="#EAB118"/>
<path d="M137.838 24.324H129.73V32.4321H137.838V24.324Z" fill="#EAB118"/>
<path d="M145.946 24.324H137.838V32.4321H145.946V24.324Z" fill="#DB8323"/>
<path d="M162.162 24.324H145.946V32.4321H162.162V24.324Z" fill="#FF1A0B"/>
<path d="M8.10811 32.4326H0V40.5407H8.10811V32.4326Z" fill="#257CED"/>
<path d="M16.2163 32.4326H8.10815V40.5407H16.2163V32.4326Z" fill="#00499C"/>
<path d="M24.3244 32.4326H16.2163V40.5407H24.3244V32.4326Z" fill="#DB8323"/>
<path d="M40.5404 32.4326H24.3242V40.5407H40.5404V32.4326Z" fill="#EAB118"/>
<path d="M64.8649 32.4326H48.6487V40.5407H64.8649V32.4326Z" fill="#EAB118"/>
<path d="M72.9729 32.4326H64.8647V40.5407H72.9729V32.4326Z" fill="#34AC80"/>
<path d="M89.1891 32.4326H72.9729V40.5407H89.1891V32.4326Z" fill="#42FFB0"/>
<path d="M97.2973 32.4326H89.1892V40.5407H97.2973V32.4326Z" fill="#068940"/>
<path d="M113.513 32.4326H97.2971V40.5407H113.513V32.4326Z" fill="#EAB118"/>
<path d="M137.838 32.4326H121.622V40.5407H137.838V32.4326Z" fill="#EAB118"/>
<path d="M145.946 32.4326H137.838V40.5407H145.946V32.4326Z" fill="#DB8323"/>
<path d="M154.054 32.4326H145.946V40.5407H154.054V32.4326Z" fill="#D22209"/>
<path d="M162.162 32.4326H154.054V40.5407H162.162V32.4326Z" fill="#FF1A0B"/>
<path d="M16.2162 40.5405H0V48.6486H16.2162V40.5405Z" fill="#00499C"/>
<path d="M24.3244 40.5405H16.2163V48.6486H24.3244V40.5405Z" fill="#DB8323"/>
<path d="M64.8648 40.5405H24.3242V48.6486H64.8648V40.5405Z" fill="#EAB118"/>
<path d="M81.081 40.5405H64.8647V48.6486H81.081V40.5405Z" fill="#34AC80"/>
<path d="M97.2973 40.5405H81.0811V48.6486H97.2973V40.5405Z" fill="#068940"/>
<path d="M137.838 40.5405H97.2971V48.6486H137.838V40.5405Z" fill="#EAB118"/>
<path d="M145.946 40.5405H137.838V48.6486H145.946V40.5405Z" fill="#DB8323"/>
<path d="M162.162 40.5405H145.946V48.6486H162.162V40.5405Z" fill="#D22209"/>
<path d="M154.054 48.6487H8.10815V56.7568H154.054V48.6487Z" fill="#EAB118"/>
<path d="M154.054 56.7568H8.10815V64.8649H154.054V56.7568Z" fill="#EAB118"/>
<path d="M154.054 64.8647H8.10815V72.9729H154.054V64.8647Z" fill="#EAB118"/>
<path d="M154.054 72.9729H8.10815V81.081H154.054V72.9729Z" fill="#EAB118"/>
<path d="M154.054 81.0808H8.10815V89.1889H154.054V81.0808Z" fill="#EAB118"/>
<path d="M154.054 89.1895H8.10815V97.2976H154.054V89.1895Z" fill="#EAB118"/>
<path d="M154.054 97.2974H8.10815V105.405H154.054V97.2974Z" fill="#EAB118"/>
<path d="M154.054 105.405H8.10815V113.513H154.054V105.405Z" fill="#EAB118"/>
<path d="M24.3244 113.514H16.2163V121.622H24.3244V113.514Z" fill="#6E3206"/>
<path d="M64.8648 113.514H24.3242V121.622H64.8648V113.514Z" fill="#DB8323"/>
<path d="M97.2972 113.514H64.8647V121.622H97.2972V113.514Z" fill="#6E3206"/>
<path d="M137.838 113.514H97.2971V121.622H137.838V113.514Z" fill="#DB8323"/>
<path d="M145.946 113.514H137.838V121.622H145.946V113.514Z" fill="#6E3206"/>
<path d="M154.054 121.622H8.10815V129.73H154.054V121.622Z" fill="#EAB118"/>
<path d="M154.054 129.73H8.10815V137.838H154.054V129.73Z" fill="#EAB118"/>
<path d="M81.0813 56.7568H32.4326V64.8649H81.0813V56.7568Z" fill="#2563EB"/>
<path d="M137.838 56.7568H89.1895V64.8649H137.838V56.7568Z" fill="#2563EB"/>
<path d="M40.5407 64.8647H32.4326V72.9729H40.5407V64.8647Z" fill="#2563EB"/>
<path d="M56.7567 64.8647H40.5405V72.9729H56.7567V64.8647Z" fill="white"/>
<path d="M72.9731 64.8647H56.7568V72.9729H72.9731V64.8647Z" fill="black"/>
<path d="M81.0813 64.8647H72.9731V72.9729H81.0813V64.8647Z" fill="#2563EB"/>
<path d="M97.2976 64.8647H89.1895V72.9729H97.2976V64.8647Z" fill="#2563EB"/>
<path d="M113.514 64.8647H97.2974V72.9729H113.514V64.8647Z" fill="white"/>
<path d="M129.73 64.8647H113.514V72.9729H129.73V64.8647Z" fill="black"/>
<path d="M137.838 64.8647H129.73V72.9729H137.838V64.8647Z" fill="#2563EB"/>
<path d="M40.5406 72.9729H8.10815V81.081H40.5406V72.9729Z" fill="#2563EB"/>
<path d="M56.7567 72.9729H40.5405V81.081H56.7567V72.9729Z" fill="white"/>
<path d="M72.9731 72.9729H56.7568V81.081H72.9731V72.9729Z" fill="black"/>
<path d="M97.2975 72.9729H72.9731V81.081H97.2975V72.9729Z" fill="#2563EB"/>
<path d="M113.514 72.9729H97.2974V81.081H113.514V72.9729Z" fill="white"/>
<path d="M129.73 72.9729H113.514V81.081H129.73V72.9729Z" fill="black"/>
<path d="M137.838 72.9729H129.73V81.081H137.838V72.9729Z" fill="#2563EB"/>
<path d="M16.2163 81.0808H8.10815V89.1889H16.2163V81.0808Z" fill="#2563EB"/>
<path d="M40.5407 81.0808H32.4326V89.1889H40.5407V81.0808Z" fill="#2563EB"/>
<path d="M56.7567 81.0808H40.5405V89.1889H56.7567V81.0808Z" fill="white"/>
<path d="M72.9731 81.0808H56.7568V89.1889H72.9731V81.0808Z" fill="black"/>
<path d="M81.0813 81.0808H72.9731V89.1889H81.0813V81.0808Z" fill="#2563EB"/>
<path d="M97.2976 81.0808H89.1895V89.1889H97.2976V81.0808Z" fill="#2563EB"/>
<path d="M113.514 81.0808H97.2974V89.1889H113.514V81.0808Z" fill="white"/>
<path d="M129.73 81.0808H113.514V89.1889H129.73V81.0808Z" fill="black"/>
<path d="M137.838 81.0808H129.73V89.1889H137.838V81.0808Z" fill="#2563EB"/>
<path d="M16.2163 89.1895H8.10815V97.2976H16.2163V89.1895Z" fill="#2563EB"/>
<path d="M40.5407 89.1895H32.4326V97.2976H40.5407V89.1895Z" fill="#2563EB"/>
<path d="M56.7567 89.1895H40.5405V97.2976H56.7567V89.1895Z" fill="white"/>
<path d="M72.9731 89.1895H56.7568V97.2976H72.9731V89.1895Z" fill="black"/>
<path d="M81.0813 89.1895H72.9731V97.2976H81.0813V89.1895Z" fill="#2563EB"/>
<path d="M97.2976 89.1895H89.1895V97.2976H97.2976V89.1895Z" fill="#2563EB"/>
<path d="M113.514 89.1895H97.2974V97.2976H113.514V89.1895Z" fill="white"/>
<path d="M129.73 89.1895H113.514V97.2976H129.73V89.1895Z" fill="black"/>
<path d="M137.838 89.1895H129.73V97.2976H137.838V89.1895Z" fill="#2563EB"/>
<path d="M81.0813 97.2974H32.4326V105.405H81.0813V97.2974Z" fill="#2563EB"/>
<path d="M137.838 97.2974H89.1895V105.405H137.838V97.2974Z" fill="#2563EB"/>
</svg>
