<svg width="167" height="207" viewBox="0 0 167 207" fill="none" xmlns="http://www.w3.org/2000/svg">
<path d="M32.4077 119.57H143.168V206.596H56.142V151.216H48.2306V206.596H32.4077V119.57Z" fill="#DC2626"/>
<path d="M24.4965 0.897827H8.6736V8.80927H24.4965V0.897827Z" fill="#CBC1BC"/>
<path d="M158.991 0.897827H24.4961V8.80927H158.991V0.897827Z" fill="#F1F5F9"/>
<path d="M24.4965 8.80902H8.6736V16.7205H24.4965V8.80902Z" fill="#CBC1BC"/>
<path d="M158.991 8.80902H24.4961V16.7205H158.991V8.80902Z" fill="#F1F5F9"/>
<path d="M32.4077 16.7209H0.761955V24.6324H32.4077V16.7209Z" fill="#CBC1BC"/>
<path d="M166.902 16.7209H32.4078V24.6324H166.902V16.7209Z" fill="#F1F5F9"/>
<path d="M32.4077 24.6323H0.761955V32.5438H32.4077V24.6323Z" fill="#CBC1BC"/>
<path d="M166.902 24.6323H32.4078V32.5438H166.902V24.6323Z" fill="#F1F5F9"/>
<path d="M32.4077 32.5435H0.761955V40.455H32.4077V32.5435Z" fill="#CBC1BC"/>
<path d="M166.902 32.5435H32.4078V40.455H166.902V32.5435Z" fill="#F1F5F9"/>
<path d="M8.6734 40.4551H0.761955V48.3666H8.6734V40.4551Z" fill="#CBC1BC"/>
<path d="M16.585 40.4551H8.6736V48.3666H16.585V40.4551Z" fill="#B2958D"/>
<path d="M24.4963 40.4551H16.5849V48.3666H24.4963V40.4551Z" fill="#343235"/>
<path d="M32.4076 40.4551H24.4961V48.3666H32.4076V40.4551Z" fill="#CBC1BC"/>
<path d="M166.902 40.4551H32.4078V48.3666H166.902V40.4551Z" fill="#F1F5F9"/>
<path d="M8.6734 48.3666H0.761955V56.278H8.6734V48.3666Z" fill="#CBC1BC"/>
<path d="M16.585 48.3666H8.6736V56.278H16.585V48.3666Z" fill="#B2958D"/>
<path d="M24.4963 48.3666H16.5849V56.278H24.4963V48.3666Z" fill="#343235"/>
<path d="M32.4076 48.3666H24.4961V56.278H32.4076V48.3666Z" fill="#CBC1BC"/>
<path d="M166.902 48.3666H32.4078V56.278H166.902V48.3666Z" fill="#F1F5F9"/>
<path d="M8.6734 56.2782H0.761955V64.1896H8.6734V56.2782Z" fill="#CBC1BC"/>
<path d="M16.585 56.2782H8.6736V64.1896H16.585V56.2782Z" fill="#B2958D"/>
<path d="M24.4963 56.2782H16.5849V64.1896H24.4963V56.2782Z" fill="#343235"/>
<path d="M32.4076 56.2782H24.4961V64.1896H32.4076V56.2782Z" fill="#CBC1BC"/>
<path d="M166.902 56.2782H32.4078V64.1896H166.902V56.2782Z" fill="#F1F5F9"/>
<path d="M8.6734 64.1892H0.761955V72.1006H8.6734V64.1892Z" fill="#CBC1BC"/>
<path d="M16.585 64.1892H8.6736V72.1006H16.585V64.1892Z" fill="#B2958D"/>
<path d="M24.4963 64.1892H16.5849V72.1006H24.4963V64.1892Z" fill="#343235"/>
<path d="M32.4076 64.1892H24.4961V72.1006H32.4076V64.1892Z" fill="#CBC1BC"/>
<path d="M166.902 64.1892H32.4078V72.1006H166.902V64.1892Z" fill="#F1F5F9"/>
<path d="M32.4077 72.101H0.761955V80.0125H32.4077V72.101Z" fill="#CBC1BC"/>
<path d="M166.902 72.101H32.4078V80.0125H166.902V72.101Z" fill="#F1F5F9"/>
<path d="M32.4077 80.0125H0.761955V87.9239H32.4077V80.0125Z" fill="#CBC1BC"/>
<path d="M166.902 80.0125H32.4078V87.9239H166.902V80.0125Z" fill="#F1F5F9"/>
<path d="M32.4077 87.9236H0.761955V95.8351H32.4077V87.9236Z" fill="#CBC1BC"/>
<path d="M166.902 87.9236H32.4078V95.8351H166.902V87.9236Z" fill="#F1F5F9"/>
<path d="M24.4965 95.8355H8.6736V103.747H24.4965V95.8355Z" fill="#CBC1BC"/>
<path d="M40.319 95.8355H24.4961V103.747H40.319V95.8355Z" fill="#B2958D"/>
<path d="M48.2308 95.8355H40.3194V103.747H48.2308V95.8355Z" fill="#CBC1BC"/>
<path d="M56.1418 95.8355H48.2303V103.747H56.1418V95.8355Z" fill="#F1F5F9"/>
<path d="M64.0534 95.8355H56.1419V103.747H64.0534V95.8355Z" fill="#CBC1BC"/>
<path d="M71.9652 95.8355H64.0538V103.747H71.9652V95.8355Z" fill="#F1F5F9"/>
<path d="M79.8763 95.8355H71.9648V103.747H79.8763V95.8355Z" fill="#CBC1BC"/>
<path d="M87.7878 95.8355H79.8764V103.747H87.7878V95.8355Z" fill="#F1F5F9"/>
<path d="M95.6995 95.8355H87.788V103.747H95.6995V95.8355Z" fill="#CBC1BC"/>
<path d="M103.611 95.8355H95.6993V103.747H103.611V95.8355Z" fill="#F1F5F9"/>
<path d="M111.522 95.8355H103.611V103.747H111.522V95.8355Z" fill="#CBC1BC"/>
<path d="M119.434 95.8355H111.522V103.747H119.434V95.8355Z" fill="#F1F5F9"/>
<path d="M127.345 95.8355H119.433V103.747H127.345V95.8355Z" fill="#CBC1BC"/>
<path d="M135.257 95.8355H127.345V103.747H135.257V95.8355Z" fill="#F1F5F9"/>
<path d="M143.168 95.8355H135.257V103.747H143.168V95.8355Z" fill="#CBC1BC"/>
<path d="M151.079 95.8355H143.168V103.747H151.079V95.8355Z" fill="#F1F5F9"/>
<path d="M24.4965 103.747H8.6736V111.658H24.4965V103.747Z" fill="#CBC1BC"/>
<path d="M32.4076 103.747H24.4961V111.658H32.4076V103.747Z" fill="#B2958D"/>
<path d="M158.991 103.747H32.4078V111.658H158.991V103.747Z" fill="#F1F5F9"/>
<path d="M127.345 111.658H32.4078V119.57H127.345V111.658Z" fill="#F1F5F9"/>
<path d="M103.611 119.57H40.3194V127.481H103.611V119.57Z" fill="#F1F5F9"/>
<path d="M96.5961 40.4555H49.1274V48.367H96.5961V40.4555Z" fill="#2563EB"/>
<path d="M151.976 40.4555H104.507V48.367H151.976V40.4555Z" fill="#2563EB"/>
<path d="M57.0388 48.3669H49.1274V56.2784H57.0388V48.3669Z" fill="#2563EB"/>
<path d="M72.8617 48.3669H57.0388V56.2784H72.8617V48.3669Z" fill="white"/>
<path d="M88.6848 48.3669H72.8619V56.2784H88.6848V48.3669Z" fill="black"/>
<path d="M96.5963 48.3669H88.6848V56.2784H96.5963V48.3669Z" fill="#2563EB"/>
<path d="M112.419 48.3669H104.507V56.2784H112.419V48.3669Z" fill="#2563EB"/>
<path d="M128.242 48.3669H112.419V56.2784H128.242V48.3669Z" fill="white"/>
<path d="M144.064 48.3669H128.242V56.2784H144.064V48.3669Z" fill="black"/>
<path d="M151.976 48.3669H144.065V56.2784H151.976V48.3669Z" fill="#2563EB"/>
<path d="M57.0388 56.2786H25.393V64.19H57.0388V56.2786Z" fill="#2563EB"/>
<path d="M72.8617 56.2786H57.0388V64.19H72.8617V56.2786Z" fill="white"/>
<path d="M88.6848 56.2786H72.8619V64.19H88.6848V56.2786Z" fill="black"/>
<path d="M112.419 56.2786H88.6848V64.19H112.419V56.2786Z" fill="#2563EB"/>
<path d="M128.242 56.2786H112.419V64.19H128.242V56.2786Z" fill="white"/>
<path d="M144.064 56.2786H128.242V64.19H144.064V56.2786Z" fill="black"/>
<path d="M151.976 56.2786H144.065V64.19H151.976V56.2786Z" fill="#2563EB"/>
<path d="M33.3044 64.1895H25.393V72.101H33.3044V64.1895Z" fill="#2563EB"/>
<path d="M57.0388 64.1895H49.1274V72.101H57.0388V64.1895Z" fill="#2563EB"/>
<path d="M72.8617 64.1895H57.0388V72.101H72.8617V64.1895Z" fill="white"/>
<path d="M88.6848 64.1895H72.8619V72.101H88.6848V64.1895Z" fill="black"/>
<path d="M96.5963 64.1895H88.6848V72.101H96.5963V64.1895Z" fill="#2563EB"/>
<path d="M112.419 64.1895H104.507V72.101H112.419V64.1895Z" fill="#2563EB"/>
<path d="M128.242 64.1895H112.419V72.101H128.242V64.1895Z" fill="white"/>
<path d="M144.064 64.1895H128.242V72.101H144.064V64.1895Z" fill="black"/>
<path d="M151.976 64.1895H144.065V72.101H151.976V64.1895Z" fill="#2563EB"/>
<path d="M33.3044 72.1014H25.393V80.0129H33.3044V72.1014Z" fill="#2563EB"/>
<path d="M57.0388 72.1014H49.1274V80.0129H57.0388V72.1014Z" fill="#2563EB"/>
<path d="M72.8617 72.1014H57.0388V80.0129H72.8617V72.1014Z" fill="white"/>
<path d="M88.6848 72.1014H72.8619V80.0129H88.6848V72.1014Z" fill="black"/>
<path d="M96.5963 72.1014H88.6848V80.0129H96.5963V72.1014Z" fill="#2563EB"/>
<path d="M112.419 72.1014H104.507V80.0129H112.419V72.1014Z" fill="#2563EB"/>
<path d="M128.242 72.1014H112.419V80.0129H128.242V72.1014Z" fill="white"/>
<path d="M144.064 72.1014H128.242V80.0129H144.064V72.1014Z" fill="black"/>
<path d="M151.976 72.1014H144.065V80.0129H151.976V72.1014Z" fill="#2563EB"/>
<path d="M96.5961 80.0128H49.1274V87.9243H96.5961V80.0128Z" fill="#2563EB"/>
<path d="M151.976 80.0128H104.507V87.9243H151.976V80.0128Z" fill="#2563EB"/>
<path d="M143.089 91.8799H135.178V99.7913H143.089V91.8799Z" fill="#2B83F6"/>
<path d="M64.9501 91.8799H57.0387V99.7913H64.9501V91.8799Z" fill="#2B83F6"/>
<path d="M143.089 99.791H135.178V107.702H143.089V99.791Z" fill="#2B83F6"/>
<path d="M64.9501 99.791H57.0387V107.702H64.9501V99.791Z" fill="#2B83F6"/>
<path d="M151 113.24H143.089V121.152H151V113.24Z" fill="#2B83F6"/>
<path d="M57.0388 113.24H49.1273V121.152H57.0388V113.24Z" fill="#2B83F6"/>
<path d="M151 121.152H143.089V129.064H151V121.152Z" fill="#2B83F6"/>
<path d="M57.0388 121.152H49.1273V129.064H57.0388V121.152Z" fill="#2B83F6"/>
<path d="M103.61 150.424H95.6989V158.336H103.61V150.424Z" fill="#7C2D12"/>
<path d="M115.478 142.513H107.566V150.425H115.478V142.513Z" fill="black"/>
<path d="M91.7434 136.184H83.832V144.095H91.7434V136.184Z" fill="black"/>
<path d="M107.567 158.336H91.7436V166.247H107.567V158.336Z" fill="#7C2D12"/>
<path d="M94.1169 166.247H83.832V174.159H94.1169V166.247Z" fill="#7C2D12"/>
<path d="M105.193 166.247H94.1166V174.159H105.193V166.247Z" fill="#7C2D12"/>
<path d="M115.478 166.247H105.193V174.159H115.478V166.247Z" fill="#7C2D12"/>
<path d="M99.6547 174.159H75.9204V182.07H99.6547V174.159Z" fill="#7C2D12"/>
<path d="M123.389 174.159H99.6549V182.07H123.389V174.159Z" fill="#7C2D12"/>
<path d="M99.6549 182.07H83.832V189.981H99.6549V182.07Z" fill="#7C2D12"/>
<path d="M115.478 182.07H99.6549V189.981H115.478V182.07Z" fill="#7C2D12"/>
</svg>
