<svg width="172" height="212" viewBox="0 0 172 212" fill="none" xmlns="http://www.w3.org/2000/svg">
<path d="M33.3784 122.162H146.892V211.351H57.7027V154.594H49.5946V211.351H33.3784V122.162Z" fill="#DC2626"/>
<path d="M25.2704 0.540283H9.0542V8.64839H25.2704V0.540283Z" fill="#CBC1BC"/>
<path d="M163.108 0.540283H25.2703V8.64839H163.108V0.540283Z" fill="white"/>
<path d="M25.2704 8.64819H9.0542V16.7563H25.2704V8.64819Z" fill="#CBC1BC"/>
<path d="M163.108 8.64819H25.2703V16.7563H163.108V8.64819Z" fill="white"/>
<path d="M33.3785 16.7568H0.946045V24.8649H33.3785V16.7568Z" fill="#CBC1BC"/>
<path d="M171.216 16.7568H33.3784V24.8649H171.216V16.7568Z" fill="white"/>
<path d="M33.3785 24.8647H0.946045V32.9729H33.3785V24.8647Z" fill="#CBC1BC"/>
<path d="M171.216 24.8647H33.3784V32.9729H171.216V24.8647Z" fill="white"/>
<path d="M33.3785 32.9729H0.946045V41.081H33.3785V32.9729Z" fill="#CBC1BC"/>
<path d="M171.216 32.9729H33.3784V41.081H171.216V32.9729Z" fill="white"/>
<path d="M9.05415 41.0811H0.946045V49.1892H9.05415V41.0811Z" fill="#CBC1BC"/>
<path d="M17.1623 41.0811H9.0542V49.1892H17.1623V41.0811Z" fill="#B2958D"/>
<path d="M25.2702 41.0811H17.1621V49.1892H25.2702V41.0811Z" fill="#343235"/>
<path d="M33.3784 41.0811H25.2703V49.1892H33.3784V41.0811Z" fill="#CBC1BC"/>
<path d="M171.216 41.0811H33.3784V49.1892H171.216V41.0811Z" fill="white"/>
<path d="M9.05415 49.189H0.946045V57.2971H9.05415V49.189Z" fill="#CBC1BC"/>
<path d="M17.1623 49.189H9.0542V57.2971H17.1623V49.189Z" fill="#B2958D"/>
<path d="M25.2702 49.189H17.1621V57.2971H25.2702V49.189Z" fill="#343235"/>
<path d="M33.3784 49.189H25.2703V57.2971H33.3784V49.189Z" fill="#CBC1BC"/>
<path d="M171.216 49.189H33.3784V57.2971H171.216V49.189Z" fill="white"/>
<path d="M9.05415 57.2971H0.946045V65.4052H9.05415V57.2971Z" fill="#CBC1BC"/>
<path d="M17.1623 57.2971H9.0542V65.4052H17.1623V57.2971Z" fill="#B2958D"/>
<path d="M25.2702 57.2971H17.1621V65.4052H25.2702V57.2971Z" fill="#343235"/>
<path d="M33.3784 57.2971H25.2703V65.4052H33.3784V57.2971Z" fill="#CBC1BC"/>
<path d="M171.216 57.2971H33.3784V65.4052H171.216V57.2971Z" fill="white"/>
<path d="M9.05415 65.405H0.946045V73.5131H9.05415V65.405Z" fill="#CBC1BC"/>
<path d="M17.1623 65.405H9.0542V73.5131H17.1623V65.405Z" fill="#B2958D"/>
<path d="M25.2702 65.405H17.1621V73.5131H25.2702V65.405Z" fill="#343235"/>
<path d="M33.3784 65.405H25.2703V73.5131H33.3784V65.405Z" fill="#CBC1BC"/>
<path d="M171.216 65.405H33.3784V73.5131H171.216V65.405Z" fill="white"/>
<path d="M33.3785 73.5137H0.946045V81.6218H33.3785V73.5137Z" fill="#CBC1BC"/>
<path d="M171.216 73.5137H33.3784V81.6218H171.216V73.5137Z" fill="white"/>
<path d="M33.3785 81.6216H0.946045V89.7297H33.3785V81.6216Z" fill="#CBC1BC"/>
<path d="M171.216 81.6216H33.3784V89.7297H171.216V81.6216Z" fill="white"/>
<path d="M33.3785 89.7295H0.946045V97.8376H33.3785V89.7295Z" fill="#CBC1BC"/>
<path d="M171.216 89.7295H33.3784V97.8376H171.216V89.7295Z" fill="white"/>
<path d="M25.2704 97.8379H9.0542V105.946H25.2704V97.8379Z" fill="#CBC1BC"/>
<path d="M41.4865 97.8379H25.2703V105.946H41.4865V97.8379Z" fill="#B2958D"/>
<path d="M49.5947 97.8379H41.4866V105.946H49.5947V97.8379Z" fill="#CBC1BC"/>
<path d="M57.7026 97.8379H49.5945V105.946H57.7026V97.8379Z" fill="white"/>
<path d="M65.8107 97.8379H57.7026V105.946H65.8107V97.8379Z" fill="#CBC1BC"/>
<path d="M73.9191 97.8379H65.811V105.946H73.9191V97.8379Z" fill="white"/>
<path d="M82.0271 97.8379H73.9189V105.946H82.0271V97.8379Z" fill="#CBC1BC"/>
<path d="M90.1352 97.8379H82.0271V105.946H90.1352V97.8379Z" fill="white"/>
<path d="M98.2434 97.8379H90.1353V105.946H98.2434V97.8379Z" fill="#CBC1BC"/>
<path d="M106.351 97.8379H98.2432V105.946H106.351V97.8379Z" fill="white"/>
<path d="M114.459 97.8379H106.351V105.946H114.459V97.8379Z" fill="#CBC1BC"/>
<path d="M122.568 97.8379H114.459V105.946H122.568V97.8379Z" fill="white"/>
<path d="M130.675 97.8379H122.567V105.946H130.675V97.8379Z" fill="#CBC1BC"/>
<path d="M138.784 97.8379H130.676V105.946H138.784V97.8379Z" fill="white"/>
<path d="M146.892 97.8379H138.784V105.946H146.892V97.8379Z" fill="#CBC1BC"/>
<path d="M155 97.8379H146.892V105.946H155V97.8379Z" fill="white"/>
<path d="M25.2704 105.946H9.0542V114.054H25.2704V105.946Z" fill="#CBC1BC"/>
<path d="M33.3784 105.946H25.2703V114.054H33.3784V105.946Z" fill="#B2958D"/>
<path d="M163.108 105.946H33.3784V114.054H163.108V105.946Z" fill="white"/>
<path d="M130.676 114.054H33.3784V122.162H130.676V114.054Z" fill="white"/>
<path d="M106.351 122.162H41.4866V130.27H106.351V122.162Z" fill="white"/>
<path d="M90.1352 41.0811H41.4866V49.1892H90.1352V41.0811Z" fill="#2563EB"/>
<path d="M146.892 41.0811H98.2432V49.1892H146.892V41.0811Z" fill="#2563EB"/>
<path d="M49.5947 49.189H41.4866V57.2971H49.5947V49.189Z" fill="#2563EB"/>
<path d="M65.8107 49.189H49.5945V57.2971H65.8107V49.189Z" fill="white"/>
<path d="M82.0273 49.189H65.811V57.2971H82.0273V49.189Z" fill="black"/>
<path d="M90.1352 49.189H82.0271V57.2971H90.1352V49.189Z" fill="#2563EB"/>
<path d="M106.351 49.189H98.2432V57.2971H106.351V49.189Z" fill="#2563EB"/>
<path d="M122.568 49.189H106.351V57.2971H122.568V49.189Z" fill="white"/>
<path d="M138.784 49.189H122.567V57.2971H138.784V49.189Z" fill="black"/>
<path d="M146.892 49.189H138.784V57.2971H146.892V49.189Z" fill="#2563EB"/>
<path d="M49.5945 57.2971H17.1621V65.4052H49.5945V57.2971Z" fill="#2563EB"/>
<path d="M65.8107 57.2971H49.5945V65.4052H65.8107V57.2971Z" fill="white"/>
<path d="M82.0273 57.2971H65.811V65.4052H82.0273V57.2971Z" fill="black"/>
<path d="M106.351 57.2971H82.0271V65.4052H106.351V57.2971Z" fill="#2563EB"/>
<path d="M122.568 57.2971H106.351V65.4052H122.568V57.2971Z" fill="white"/>
<path d="M138.784 57.2971H122.567V65.4052H138.784V57.2971Z" fill="black"/>
<path d="M146.892 57.2971H138.784V65.4052H146.892V57.2971Z" fill="#2563EB"/>
<path d="M25.2702 65.405H17.1621V73.5131H25.2702V65.405Z" fill="#2563EB"/>
<path d="M49.5947 65.405H41.4866V73.5131H49.5947V65.405Z" fill="#2563EB"/>
<path d="M65.8107 65.405H49.5945V73.5131H65.8107V65.405Z" fill="white"/>
<path d="M82.0273 65.405H65.811V73.5131H82.0273V65.405Z" fill="black"/>
<path d="M90.1352 65.405H82.0271V73.5131H90.1352V65.405Z" fill="#2563EB"/>
<path d="M106.351 65.405H98.2432V73.5131H106.351V65.405Z" fill="#2563EB"/>
<path d="M122.568 65.405H106.351V73.5131H122.568V65.405Z" fill="white"/>
<path d="M138.784 65.405H122.567V73.5131H138.784V65.405Z" fill="black"/>
<path d="M146.892 65.405H138.784V73.5131H146.892V65.405Z" fill="#2563EB"/>
<path d="M25.2702 73.5137H17.1621V81.6218H25.2702V73.5137Z" fill="#2563EB"/>
<path d="M49.5947 73.5137H41.4866V81.6218H49.5947V73.5137Z" fill="#2563EB"/>
<path d="M65.8107 73.5137H49.5945V81.6218H65.8107V73.5137Z" fill="white"/>
<path d="M82.0273 73.5137H65.811V81.6218H82.0273V73.5137Z" fill="black"/>
<path d="M90.1352 73.5137H82.0271V81.6218H90.1352V73.5137Z" fill="#2563EB"/>
<path d="M106.351 73.5137H98.2432V81.6218H106.351V73.5137Z" fill="#2563EB"/>
<path d="M122.568 73.5137H106.351V81.6218H122.568V73.5137Z" fill="white"/>
<path d="M138.784 73.5137H122.567V81.6218H138.784V73.5137Z" fill="black"/>
<path d="M146.892 73.5137H138.784V81.6218H146.892V73.5137Z" fill="#2563EB"/>
<path d="M90.1352 81.6216H41.4866V89.7297H90.1352V81.6216Z" fill="#2563EB"/>
<path d="M146.892 81.6216H98.2432V89.7297H146.892V81.6216Z" fill="#2563EB"/>
<path d="M138.784 93.7839H130.676V101.892H138.784V93.7839Z" fill="#2B83F6"/>
<path d="M57.7026 93.7839H49.5945V101.892H57.7026V93.7839Z" fill="#2B83F6"/>
<path d="M138.784 101.892H130.676V110H138.784V101.892Z" fill="#2B83F6"/>
<path d="M57.7026 101.892H49.5945V110H57.7026V101.892Z" fill="#2B83F6"/>
<path d="M146.892 115.676H138.784V123.784H146.892V115.676Z" fill="#2B83F6"/>
<path d="M49.5947 115.676H41.4866V123.784H49.5947V115.676Z" fill="#2B83F6"/>
<path d="M146.892 123.784H138.784V131.892H146.892V123.784Z" fill="#2B83F6"/>
<path d="M49.5947 123.784H41.4866V131.892H49.5947V123.784Z" fill="#2B83F6"/>
<path d="M106.351 153.784H98.2432V161.892H106.351V153.784Z" fill="#7C2D12"/>
<path d="M118.513 145.676H110.405V153.784H118.513V145.676Z" fill="black"/>
<path d="M94.1892 139.189H86.0811V147.297H94.1892V139.189Z" fill="black"/>
<path d="M110.405 161.892H94.1892V170H110.405V161.892Z" fill="#7C2D12"/>
<path d="M96.6216 170H86.0811V178.108H96.6216V170Z" fill="#7C2D12"/>
<path d="M107.973 170H96.6216V178.108H107.973V170Z" fill="#7C2D12"/>
<path d="M118.513 170H107.973V178.108H118.513V170Z" fill="#7C2D12"/>
<path d="M102.297 178.108H77.9729V186.216H102.297V178.108Z" fill="#7C2D12"/>
<path d="M126.621 178.108H102.297V186.216H126.621V178.108Z" fill="#7C2D12"/>
<path d="M102.297 186.216H86.0811V194.324H102.297V186.216Z" fill="#7C2D12"/>
<path d="M118.513 186.216H102.297V194.324H118.513V186.216Z" fill="#7C2D12"/>
</svg>
