<svg width="179" height="244" viewBox="0 0 179 244" fill="none" xmlns="http://www.w3.org/2000/svg">
<path d="M32.4324 154.054H145.946V243.243H56.7567V186.486H48.6486V243.243H32.4324V154.054Z" fill="#16A34A"/>
<path d="M97.2973 0H81.0811V8.10811H97.2973V0Z" fill="#EAB118"/>
<path d="M81.081 8.10791H72.9729V16.216H81.081V8.10791Z" fill="#EAB118"/>
<path d="M89.1892 8.10791H81.0811V16.216H89.1892V8.10791Z" fill="#D22209"/>
<path d="M97.2973 8.10791H89.1892V16.216H97.2973V8.10791Z" fill="#FF1A0B"/>
<path d="M105.405 8.10791H97.2971V16.216H105.405V8.10791Z" fill="#EAB118"/>
<path d="M81.081 16.2161H72.9729V24.3242H81.081V16.2161Z" fill="#EAB118"/>
<path d="M89.1892 16.2161H81.0811V24.3242H89.1892V16.2161Z" fill="#FF1A0B"/>
<path d="M97.2973 16.2161H89.1892V24.3242H97.2973V16.2161Z" fill="#D22209"/>
<path d="M105.405 16.2161H97.2971V24.3242H105.405V16.2161Z" fill="#EAB118"/>
<path d="M64.8649 24.3242H40.5405V32.4323H64.8649V24.3242Z" fill="#EAB118"/>
<path d="M97.2973 24.3242H81.0811V32.4323H97.2973V24.3242Z" fill="#EAB118"/>
<path d="M137.838 24.3242H113.513V32.4323H137.838V24.3242Z" fill="#EAB118"/>
<path d="M40.5405 32.4321H32.4324V40.5402H40.5405V32.4321Z" fill="#EAB118"/>
<path d="M72.9729 32.4321H64.8647V40.5402H72.9729V32.4321Z" fill="#EAB118"/>
<path d="M97.2973 32.4321H81.0811V40.5402H97.2973V32.4321Z" fill="#EAB118"/>
<path d="M113.514 32.4321H105.406V40.5402H113.514V32.4321Z" fill="#EAB118"/>
<path d="M145.946 32.4321H137.838V40.5402H145.946V32.4321Z" fill="#EAB118"/>
<path d="M32.4325 40.54H8.10815V48.6481H32.4325V40.54Z" fill="#EAB118"/>
<path d="M105.405 40.54H72.9729V48.6481H105.405V40.54Z" fill="#EAB118"/>
<path d="M170.27 40.54H145.946V48.6481H170.27V40.54Z" fill="#EAB118"/>
<path d="M8.10811 48.6487H0V56.7568H8.10811V48.6487Z" fill="#EAB118"/>
<path d="M32.4323 48.6487H24.3242V56.7568H32.4323V48.6487Z" fill="#EAB118"/>
<path d="M72.9728 48.6487H56.7566V56.7568H72.9728V48.6487Z" fill="#FF1A0B"/>
<path d="M81.081 48.6487H72.9729V56.7568H81.081V48.6487Z" fill="#EAB118"/>
<path d="M89.1892 48.6487H81.0811V56.7568H89.1892V48.6487Z" fill="#257CED"/>
<path d="M97.2973 48.6487H89.1892V56.7568H97.2973V48.6487Z" fill="#00499C"/>
<path d="M105.405 48.6487H97.2971V56.7568H105.405V48.6487Z" fill="#EAB118"/>
<path d="M121.622 48.6487H105.406V56.7568H121.622V48.6487Z" fill="#FF1A0B"/>
<path d="M154.054 48.6487H145.946V56.7568H154.054V48.6487Z" fill="#EAB118"/>
<path d="M178.378 48.6487H170.27V56.7568H178.378V48.6487Z" fill="#EAB118"/>
<path d="M8.10811 56.7566H0V64.8647H8.10811V56.7566Z" fill="#EAB118"/>
<path d="M32.4323 56.7566H24.3242V64.8647H32.4323V56.7566Z" fill="#EAB118"/>
<path d="M72.973 56.7566H40.5405V64.8647H72.973V56.7566Z" fill="#FF1A0B"/>
<path d="M81.081 56.7566H72.9729V64.8647H81.081V56.7566Z" fill="#EAB118"/>
<path d="M97.2973 56.7566H81.0811V64.8647H97.2973V56.7566Z" fill="#00499C"/>
<path d="M105.405 56.7566H97.2971V64.8647H105.405V56.7566Z" fill="#EAB118"/>
<path d="M137.838 56.7566H105.406V64.8647H137.838V56.7566Z" fill="#FF1A0B"/>
<path d="M154.054 56.7566H145.946V64.8647H154.054V56.7566Z" fill="#EAB118"/>
<path d="M178.378 56.7566H170.27V64.8647H178.378V56.7566Z" fill="#EAB118"/>
<path d="M8.10811 64.8647H0V72.9729H8.10811V64.8647Z" fill="#EAB118"/>
<path d="M24.3244 64.8647H16.2163V72.9729H24.3244V64.8647Z" fill="#FF1A0B"/>
<path d="M32.4323 64.8647H24.3242V72.9729H32.4323V64.8647Z" fill="#EAB118"/>
<path d="M72.9729 64.8647H32.4324V72.9729H72.9729V64.8647Z" fill="#FF1A0B"/>
<path d="M81.081 64.8647H72.9729V72.9729H81.081V64.8647Z" fill="#EAB118"/>
<path d="M89.1892 64.8647H81.0811V72.9729H89.1892V64.8647Z" fill="#00499C"/>
<path d="M97.2973 64.8647H89.1892V72.9729H97.2973V64.8647Z" fill="#257CED"/>
<path d="M105.405 64.8647H97.2971V72.9729H105.405V64.8647Z" fill="#EAB118"/>
<path d="M145.946 64.8647H105.406V72.9729H145.946V64.8647Z" fill="#FF1A0B"/>
<path d="M154.054 64.8647H145.946V72.9729H154.054V64.8647Z" fill="#EAB118"/>
<path d="M162.162 64.8647H154.054V72.9729H162.162V64.8647Z" fill="#FF1A0B"/>
<path d="M178.378 64.8647H170.27V72.9729H178.378V64.8647Z" fill="#EAB118"/>
<path d="M16.2163 72.9729H8.10815V81.081H16.2163V72.9729Z" fill="#EAB118"/>
<path d="M24.3244 72.9729H16.2163V81.081H24.3244V72.9729Z" fill="#FF1A0B"/>
<path d="M32.4323 72.9729H24.3242V81.081H32.4323V72.9729Z" fill="#EAB118"/>
<path d="M72.9729 72.9729H32.4324V81.081H72.9729V72.9729Z" fill="#FF1A0B"/>
<path d="M105.405 72.9729H72.9729V81.081H105.405V72.9729Z" fill="#EAB118"/>
<path d="M145.946 72.9729H105.406V81.081H145.946V72.9729Z" fill="#FF1A0B"/>
<path d="M154.054 72.9729H145.946V81.081H154.054V72.9729Z" fill="#EAB118"/>
<path d="M162.162 72.9729H154.054V81.081H162.162V72.9729Z" fill="#FF1A0B"/>
<path d="M170.27 72.9729H162.162V81.081H170.27V72.9729Z" fill="#EAB118"/>
<path d="M16.2163 81.0808H8.10815V89.1889H16.2163V81.0808Z" fill="#EAB118"/>
<path d="M24.3244 81.0808H16.2163V89.1889H24.3244V81.0808Z" fill="#FF1A0B"/>
<path d="M32.4323 81.0808H24.3242V89.1889H32.4323V81.0808Z" fill="#EAB118"/>
<path d="M81.081 81.0808H32.4324V89.1889H81.081V81.0808Z" fill="#FF1A0B"/>
<path d="M97.2973 81.0808H81.0811V89.1889H97.2973V81.0808Z" fill="#EAB118"/>
<path d="M145.946 81.0808H97.2971V89.1889H145.946V81.0808Z" fill="#FF1A0B"/>
<path d="M154.054 81.0808H145.946V89.1889H154.054V81.0808Z" fill="#EAB118"/>
<path d="M162.162 81.0808H154.054V89.1889H162.162V81.0808Z" fill="#FF1A0B"/>
<path d="M170.27 81.0808H162.162V89.1889H170.27V81.0808Z" fill="#EAB118"/>
<path d="M16.2163 89.189H8.10815V97.2971H16.2163V89.189Z" fill="#EAB118"/>
<path d="M32.4325 89.189H16.2163V97.2971H32.4325V89.189Z" fill="#FF1A0B"/>
<path d="M40.5405 89.189H32.4324V97.2971H40.5405V89.189Z" fill="#EAB118"/>
<path d="M72.973 89.189H40.5405V97.2971H72.973V89.189Z" fill="#FF1A0B"/>
<path d="M105.405 89.189H72.9729V97.2971H105.405V89.189Z" fill="#EAB118"/>
<path d="M137.838 89.189H105.406V97.2971H137.838V89.189Z" fill="#FF1A0B"/>
<path d="M145.946 89.189H137.838V97.2971H145.946V89.189Z" fill="#EAB118"/>
<path d="M162.162 89.189H145.946V97.2971H162.162V89.189Z" fill="#FF1A0B"/>
<path d="M170.27 89.189H162.162V97.2971H170.27V89.189Z" fill="#EAB118"/>
<path d="M24.3244 97.2969H16.2163V105.405H24.3244V97.2969Z" fill="#EAB118"/>
<path d="M40.5404 97.2969H24.3242V105.405H40.5404V97.2969Z" fill="#FF1A0B"/>
<path d="M48.6486 97.2969H40.5405V105.405H48.6486V97.2969Z" fill="#EAB118"/>
<path d="M72.973 97.2969H48.6487V105.405H72.973V97.2969Z" fill="#FF1A0B"/>
<path d="M81.081 97.2969H72.9729V105.405H81.081V97.2969Z" fill="#EAB118"/>
<path d="M97.2973 97.2969H81.0811V105.405H97.2973V97.2969Z" fill="#D08B11"/>
<path d="M105.405 97.2969H97.2971V105.405H105.405V97.2969Z" fill="#EAB118"/>
<path d="M129.73 97.2969H105.406V105.405H129.73V97.2969Z" fill="#FF1A0B"/>
<path d="M137.838 97.2969H129.73V105.405H137.838V97.2969Z" fill="#EAB118"/>
<path d="M154.054 97.2969H137.838V105.405H154.054V97.2969Z" fill="#FF1A0B"/>
<path d="M162.162 97.2969H154.054V105.405H162.162V97.2969Z" fill="#EAB118"/>
<path d="M24.3244 105.406H16.2163V113.514H24.3244V105.406Z" fill="#EAB118"/>
<path d="M40.5404 105.406H24.3242V113.514H40.5404V105.406Z" fill="#FF1A0B"/>
<path d="M48.6486 105.406H40.5405V113.514H48.6486V105.406Z" fill="#EAB118"/>
<path d="M72.973 105.406H48.6487V113.514H72.973V105.406Z" fill="#FF1A0B"/>
<path d="M81.081 105.406H72.9729V113.514H81.081V105.406Z" fill="#EAB118"/>
<path d="M97.2973 105.406H81.0811V113.514H97.2973V105.406Z" fill="#D08B11"/>
<path d="M105.405 105.406H97.2971V113.514H105.405V105.406Z" fill="#EAB118"/>
<path d="M129.73 105.406H105.406V113.514H129.73V105.406Z" fill="#FF1A0B"/>
<path d="M137.838 105.406H129.73V113.514H137.838V105.406Z" fill="#EAB118"/>
<path d="M154.054 105.406H137.838V113.514H154.054V105.406Z" fill="#FF1A0B"/>
<path d="M162.162 105.406H154.054V113.514H162.162V105.406Z" fill="#EAB118"/>
<path d="M24.3244 113.513H8.10815V121.622H24.3244V113.513Z" fill="#EAB118"/>
<path d="M32.4323 113.513H24.3242V121.622H32.4323V113.513Z" fill="#FF1A0B"/>
<path d="M56.7567 113.513H32.4324V121.622H56.7567V113.513Z" fill="#EAB118"/>
<path d="M72.9728 113.513H56.7566V121.622H72.9728V113.513Z" fill="#FF1A0B"/>
<path d="M81.081 113.513H72.9729V121.622H81.081V113.513Z" fill="#EAB118"/>
<path d="M97.2973 113.513H81.0811V121.622H97.2973V113.513Z" fill="#D08B11"/>
<path d="M105.405 113.513H97.2971V121.622H105.405V113.513Z" fill="#EAB118"/>
<path d="M121.622 113.513H105.406V121.622H121.622V113.513Z" fill="#FF1A0B"/>
<path d="M145.946 113.513H121.622V121.622H145.946V113.513Z" fill="#EAB118"/>
<path d="M154.054 113.513H145.946V121.622H154.054V113.513Z" fill="#FF1A0B"/>
<path d="M170.27 113.513H154.054V121.622H170.27V113.513Z" fill="#EAB118"/>
<path d="M162.162 121.621H16.2163V129.729H162.162V121.621Z" fill="#EAB118"/>
<path d="M154.054 129.73H24.3242V137.838H154.054V129.73Z" fill="#6E3206"/>
<path d="M56.7568 137.838H16.2163V145.946H56.7568V137.838Z" fill="#EAB118"/>
<path d="M121.621 137.838H56.7566V145.946H121.621V137.838Z" fill="#FF1A0B"/>
<path d="M162.162 137.838H121.622V145.946H162.162V137.838Z" fill="#EAB118"/>
<path d="M162.162 145.946H16.2163V154.054H162.162V145.946Z" fill="#EAB118"/>
<path d="M89.1892 72.9729H40.5405V81.081H89.1892V72.9729Z" fill="#2563EB"/>
<path d="M145.946 72.9729H97.2974V81.081H145.946V72.9729Z" fill="#2563EB"/>
<path d="M48.6486 81.0808H40.5405V89.1889H48.6486V81.0808Z" fill="#2563EB"/>
<path d="M64.8649 81.0808H48.6487V89.1889H64.8649V81.0808Z" fill="white"/>
<path d="M81.0812 81.0808H64.865V89.1889H81.0812V81.0808Z" fill="black"/>
<path d="M89.1892 81.0808H81.0811V89.1889H89.1892V81.0808Z" fill="#2563EB"/>
<path d="M105.405 81.0808H97.2974V89.1889H105.405V81.0808Z" fill="#2563EB"/>
<path d="M121.622 81.0808H105.406V89.1889H121.622V81.0808Z" fill="white"/>
<path d="M137.838 81.0808H121.622V89.1889H137.838V81.0808Z" fill="black"/>
<path d="M145.946 81.0808H137.838V89.1889H145.946V81.0808Z" fill="#2563EB"/>
<path d="M48.6487 89.189H16.2163V97.2971H48.6487V89.189Z" fill="#2563EB"/>
<path d="M64.8649 89.189H48.6487V97.2971H64.8649V89.189Z" fill="white"/>
<path d="M81.0812 89.189H64.865V97.2971H81.0812V89.189Z" fill="black"/>
<path d="M105.405 89.189H81.0811V97.2971H105.405V89.189Z" fill="#2563EB"/>
<path d="M121.622 89.189H105.406V97.2971H121.622V89.189Z" fill="white"/>
<path d="M137.838 89.189H121.622V97.2971H137.838V89.189Z" fill="black"/>
<path d="M145.946 89.189H137.838V97.2971H145.946V89.189Z" fill="#2563EB"/>
<path d="M24.3244 97.2969H16.2163V105.405H24.3244V97.2969Z" fill="#2563EB"/>
<path d="M48.6486 97.2969H40.5405V105.405H48.6486V97.2969Z" fill="#2563EB"/>
<path d="M64.8649 97.2969H48.6487V105.405H64.8649V97.2969Z" fill="white"/>
<path d="M81.0812 97.2969H64.865V105.405H81.0812V97.2969Z" fill="black"/>
<path d="M89.1892 97.2969H81.0811V105.405H89.1892V97.2969Z" fill="#2563EB"/>
<path d="M105.405 97.2969H97.2974V105.405H105.405V97.2969Z" fill="#2563EB"/>
<path d="M121.622 97.2969H105.406V105.405H121.622V97.2969Z" fill="white"/>
<path d="M137.838 97.2969H121.622V105.405H137.838V97.2969Z" fill="black"/>
<path d="M145.946 97.2969H137.838V105.405H145.946V97.2969Z" fill="#2563EB"/>
<path d="M24.3244 105.406H16.2163V113.514H24.3244V105.406Z" fill="#2563EB"/>
<path d="M48.6486 105.406H40.5405V113.514H48.6486V105.406Z" fill="#2563EB"/>
<path d="M64.8649 105.406H48.6487V113.514H64.8649V105.406Z" fill="white"/>
<path d="M81.0812 105.406H64.865V113.514H81.0812V105.406Z" fill="black"/>
<path d="M89.1892 105.406H81.0811V113.514H89.1892V105.406Z" fill="#2563EB"/>
<path d="M105.405 105.406H97.2974V113.514H105.405V105.406Z" fill="#2563EB"/>
<path d="M121.622 105.406H105.406V113.514H121.622V105.406Z" fill="white"/>
<path d="M137.838 105.406H121.622V113.514H137.838V105.406Z" fill="black"/>
<path d="M145.946 105.406H137.838V113.514H145.946V105.406Z" fill="#2563EB"/>
<path d="M89.1892 113.513H40.5405V121.622H89.1892V113.513Z" fill="#2563EB"/>
<path d="M145.946 113.513H97.2974V121.622H145.946V113.513Z" fill="#2563EB"/>
<path d="M64.8647 154.054H56.7566V162.162H64.8647V154.054Z" fill="#FFC110"/>
<path d="M121.622 154.054H113.513V162.162H121.622V154.054Z" fill="#FFC110"/>
<path d="M64.8647 162.162H56.7566V170.27H64.8647V162.162Z" fill="#FFC110"/>
<path d="M121.622 162.162H113.513V170.27H121.622V162.162Z" fill="#FFC110"/>
<path d="M72.9729 170.27H64.8647V178.378H72.9729V170.27Z" fill="#FFC110"/>
<path d="M113.513 170.27H105.405V178.378H113.513V170.27Z" fill="#FFC110"/>
<path d="M105.405 178.378H72.9729V186.486H105.405V178.378Z" fill="#FFC110"/>
<path d="M97.297 186.486H81.0808V194.594H97.297V186.486Z" fill="#FFC110"/>
<path d="M105.405 194.594H72.9729V202.703H105.405V194.594Z" fill="#FFC110"/>
<path d="M89.1891 202.702H72.9729V210.811H89.1891V202.702Z" fill="#FFC110"/>
<path d="M105.405 210.811H89.189V218.919H105.405V210.811Z" fill="#FFC110"/>
<path d="M105.405 218.919H72.9729V227.027H105.405V218.919Z" fill="#FFC110"/>
<path d="M97.297 227.027H81.0808V235.135H97.297V227.027Z" fill="#FFC110"/>
</svg>
